<?xml version="1.0" standalone="no"?>
<!DOCTYPE svg PUBLIC "-//W3C//DTD SVG 1.1//EN" "http://www.w3.org/Graphics/SVG/1.1/DTD/svg11.dtd" >
<!--
2013-9-30: Created.
-->
<svg>
<metadata>
Created by iconfont
</metadata>
<defs>

<font id="iconfont" horiz-adv-x="1024" >
  <font-face
    font-family="iconfont"
    font-weight="500"
    font-stretch="normal"
    units-per-em="1024"
    ascent="896"
    descent="-128"
  />
    <missing-glyph />
    
    <glyph glyph-name="shubiao" unicode="&#59004;" d="M513.704-128C355.576-128 224.2 0.224 224.2 158.336L224.2 609.664C224.2 767.776 355.576 896 513.704 896 671.816 896 800.04 767.776 800.04 609.664L800.04 158.336C800.04 0.224 671.816-128 513.704-128ZM736.04 609.664C736.04 732.256 636.296 832 513.704 832 391.096 832 288.2 732.256 288.2 609.664L288.2 158.336C288.2 35.744 391.096-64 513.704-64 636.296-64 736.04 35.744 736.04 158.336L736.04 609.664ZM512.456 480C494.776 480 480.456 494.336 480.456 512L480.456 672C480.456 689.68 494.776 704 512.456 704 530.136 704 544.456 689.68 544.456 672L544.456 512C544.456 494.336 530.136 480 512.456 480Z"  horiz-adv-x="1024" />

    
    <glyph glyph-name="dayuhao" unicode="&#59005;" d="M798.38 357.97l-575.1 346.2 0.04 68.75 575.04-345.6 0.02-69.35zM798.38 357.97L223.3 1.01v69.52l575.06 356.79 0.02-69.35z"  horiz-adv-x="1024" />

    
    <glyph glyph-name="xiaoyuhao" unicode="&#59006;" d="M224.45 357.32l575.11 346.21-0.05 68.75-575.03-345.61-0.03-69.35zM224.45 357.32l575.08-356.96v69.52L224.48 426.67l-0.03-69.35z"  horiz-adv-x="1024" />

    
    <glyph glyph-name="baocun" unicode="&#58915;" d="M1020.417841 712.712856L825.886697 896 742.90001 894.905451H0v-1022.905451h1024.199009V629.925177l-3.781168 82.787679zM125.475075 832.217666h683.893888l90.151006-84.976776 1.492566-241.49723h-66.667962V699.279759H764.193956v-193.536099H659.316296V762.962589h-125.375571v-257.218929H125.475075V832.217666z m0-892.156642v441.799631h776.333496l2.786123-441.799631h-779.119619z"  horiz-adv-x="1029" />

    
    <glyph glyph-name="bangzhu" unicode="&#58916;" d="M512 826.272374c59.368093 0 117.142412-11.754086 171.529961-34.863814 52.594553-22.412451 100.009339-54.387549 140.750195-95.128404 40.740856-40.740856 72.715953-88.155642 95.128404-140.750195 23.109728-54.387549 34.863813-112.161868 34.863814-171.529961 0-59.368093-11.754086-117.142412-34.863814-171.529961-22.412451-52.594553-54.387549-100.009339-95.128404-140.750195-40.740856-40.740856-88.155642-72.715953-140.750195-95.128404-54.387549-23.109728-112.161868-34.863813-171.529961-34.863814-59.368093 0-117.142412 11.754086-171.529961 34.863814-52.594553 22.412451-100.009339 54.387549-140.750195 95.128404-40.740856 40.740856-72.715953 88.155642-95.128404 140.750195C81.481712 266.857588 69.727626 324.631907 69.727626 384c0 59.368093 11.754086 117.142412 34.863814 171.529961 22.412451 52.594553 54.387549 100.009339 95.128404 140.750195 40.740856 40.740856 88.155642 72.715953 140.750195 95.128404C394.857588 814.518288 452.631907 826.272374 512 826.272374m0 69.727626C230.4 896 0 665.6 0 384s230.4-512 512-512 512 230.4 512 512S793.6 896 512 896zM413.783658 494.568093H348.638132c4.084047 111.663813 60.961868 169.537743 170.633463 173.721401 95.128405-2.091829 145.83035-50.701946 152.006226-145.83035 0-45.522179-24.803113-92.040467-74.508949-139.654475-33.070817-33.070817-49.606226-59.965759-49.606226-80.684825v-65.145525h-68.233463v55.881712c0 37.254475 23.707393 78.592996 71.321401 124.115175 41.338521 41.338521 62.057588 77.596887 62.057587 108.575876-4.183658 59.965759-35.162646 90.944747-93.036576 93.036576-68.233463-1.992218-103.396109-43.330739-105.487937-124.015565z m136.566537-322.639688v-68.233463h-74.409339v68.233463h74.409339z"  horiz-adv-x="1028" />

    
    <glyph glyph-name="biaodashidingyi" unicode="&#58917;" d="M300.855253-14.144747V519.968872c-3.486381 63.153307 22.810895 93.036576 78.99144 89.450583h273.730739v-28.98677H453.459144c-31.576654 0-47.414786-17.531518-47.414786-52.594553v-115.847471h236.874708v-31.576653H406.143969v-394.558755H300.855253zM643.516732 162.863813l144.73463 150.014008-144.73463 168.541634h102.698832l92.140078-113.157976 92.140078 113.157976h97.419455L883.080934 318.157198l139.455253-155.293385c-84.270817-3.486381-129.892607 7.869261-136.86537 34.166537-5.279377 6.972763-9.662257 12.25214-13.148638 15.838132l-39.445914 50.00467-42.135409-47.414786c-1.792996-3.486381-5.279377-6.972763-10.558755-10.558755-12.25214-31.477043-57.87393-45.522179-136.865369-42.035798zM812.456809-128H0.03035V517.378988L378.651362 896h433.805447v-184.678599h-69.727626V826.272374H407.538521L69.757977 488.491829V-58.272374h672.971206v95.72607h69.727626z"  horiz-adv-x="1031" />

    
    <glyph glyph-name="canshudingyi" unicode="&#58918;" d="M514 817.8c46.4 0 91.7-8.4 134.6-25.1 41.4-16.1 79.3-39.3 112.6-69.1l34.8-31.1 42.1 20.2c11.3 5.4 23.5 8.2 36.2 8.2 46.2 0 83.8-37.6 83.8-83.8 0-14.9-3.9-29.5-11.4-42.3-7.3-12.4-17.7-22.9-30.2-30.2l-40.1-23.5 6-46.1c2.1-16.1 3.2-32.5 3.2-48.8 0-77.2-23.5-151.3-67.9-214.1-21.4-30.3-47.2-57.2-76.5-79.9a371.65 371.65 0 0 0-97.3-54.2l-45.1-16.8-0.4-48.1c-0.2-22.2-9-43.1-24.8-58.7-15.8-15.7-36.7-24.3-59-24.3-22.2 0-43.1 8.6-58.9 24.2-15.9 15.7-24.7 36.5-24.9 58.7l-0.6 48.1-45.1 16.7c-35 13-67.9 31.2-97.6 54.1-29.5 22.7-55.3 49.6-76.8 80-44.6 62.9-68.1 137.1-68.1 214.5 0 16.3 1.1 32.7 3.2 48.8l6 46.1-40.1 23.5A84.06 84.06 0 0 0 81.5 595C73.9 607.6 70 622.2 70 637.1c0 46.2 37.6 83.8 83.8 83.8 12.7 0 24.9-2.7 36.2-8.2l42.1-20.2 34.8 31.1c33.3 29.7 71.2 53 112.6 69.1 42.8 16.6 88.1 25.1 134.5 25.1m0 70c-112.8 0-215.7-42.3-293.8-111.9-20.1 9.6-42.6 15.1-66.4 15.1C68.9 790.9 0 722.1 0 637.1c0-56.7 30.7-106.2 76.3-132.9-2.5-19-3.8-38.3-3.8-57.9 0-189.9 120-351.9 288.2-414.2 1-84.1 69.5-151.9 153.8-151.9 84.5 0 153 68.1 153.8 152.3C836 95.1 955.5 256.8 955.5 446.3c0 19.6-1.3 39-3.8 57.9 45.6 26.7 76.3 76.2 76.3 132.9 0 84.9-68.9 153.8-153.8 153.8-23.8 0-46.3-5.4-66.4-15.1-78.1 69.7-181 112-293.8 112zM728.4 222.6h-76.5l-83.4 118.5c-16.7 23.7-31.9 39.8-45.7 48.4-13.8 8.5-30.4 12.8-49.6 12.8h-46.7v-179.7h-64.9V649.4h153.1c48.9 0 87.1-10 114.8-30 27.7-20 41.5-48 41.5-84.1 0-59.2-37.2-97.6-111.6-115.2v-1.4c13.8-5 25.8-12 35.8-21.2 10.1-9.2 23.1-24.9 39.1-47.1l94.1-127.8zM426.5 601.2v-150.8H503c29.6 0 53.7 7.3 72.2 22s27.7 34 27.7 57.9c0 22.2-8.4 39.6-25.3 52.1s-41.4 18.7-73.6 18.7h-77.5z"  horiz-adv-x="1028" />

    
    <glyph glyph-name="canshuduixiang" unicode="&#58919;" d="M514 817.8c46.4 0 91.7-8.4 134.6-25.1 41.4-16.1 79.3-39.3 112.6-69.1l34.8-31.1 42.1 20.2c11.3 5.4 23.5 8.2 36.2 8.2 46.2 0 83.8-37.6 83.8-83.8 0-14.9-3.9-29.5-11.4-42.3-7.3-12.4-17.7-22.9-30.2-30.2l-40.1-23.5 6-46.1c2.1-16.1 3.2-32.5 3.2-48.8 0-77.2-23.5-151.3-67.9-214.1-21.4-30.3-47.2-57.2-76.5-79.9a371.65 371.65 0 0 0-97.3-54.2l-45.1-16.8-0.4-48.1c-0.2-22.2-9-43.1-24.8-58.7-15.8-15.7-36.7-24.3-59-24.3-22.2 0-43.1 8.6-58.9 24.2-15.9 15.7-24.7 36.5-24.9 58.7l-0.6 48.1-45.1 16.7c-35 13-67.9 31.2-97.6 54.1-29.5 22.7-55.3 49.6-76.8 80-44.6 62.9-68.1 137.1-68.1 214.5 0 16.3 1.1 32.7 3.2 48.8l6 46.1-40.1 23.5A84.06 84.06 0 0 0 81.5 595C73.9 607.6 70 622.2 70 637.1c0 46.2 37.6 83.8 83.8 83.8 12.7 0 24.9-2.7 36.2-8.2l42.1-20.2 34.8 31.1c33.3 29.7 71.2 53 112.6 69.1 42.8 16.6 88.1 25.1 134.5 25.1m0 70c-112.8 0-215.7-42.3-293.8-111.9-20.1 9.6-42.6 15.1-66.4 15.1C68.9 790.9 0 722.1 0 637.1c0-56.7 30.7-106.2 76.3-132.9-2.5-19-3.8-38.3-3.8-57.9 0-189.9 120-351.9 288.2-414.2 1-84.1 69.5-151.9 153.8-151.9 84.5 0 153 68.1 153.8 152.3C836 95.1 955.5 256.8 955.5 446.3c0 19.6-1.3 39-3.8 57.9 45.6 26.7 76.3 76.2 76.3 132.9 0 84.9-68.9 153.8-153.8 153.8-23.8 0-46.3-5.4-66.4-15.1-78.1 69.7-181 112-293.8 112zM610.5 434.6c19.3 22.3 31 51.5 31 83.3 0 70.4-57.1 127.5-127.5 127.5s-127.5-57.1-127.5-127.5c0-31.8 11.7-60.9 31-83.3-68.4-34.9-115.3-105.8-115.3-187.4h70c0 77.5 63.6 140.5 141.8 140.5s141.8-63 141.8-140.5h70c0 81.6-46.9 152.5-115.3 187.4zM514 575.4c31.7 0 57.5-25.8 57.5-57.5s-25.8-57.5-57.5-57.5-57.5 25.8-57.5 57.5 25.8 57.5 57.5 57.5z"  horiz-adv-x="1028" />

    
    <glyph glyph-name="chaxun" unicode="&#58920;" d="M376.5 826c41.4 0 81.5-8.1 119.3-24.1 36.5-15.4 69.3-37.5 97.4-65.7 28.2-28.2 50.3-61 65.7-97.4 16-37.7 24.1-77.9 24.1-119.3s-8.1-81.5-24.1-119.3c-15.4-36.5-37.5-69.3-65.7-97.4-28.2-28.2-61-50.3-97.4-65.7-37.7-16-77.9-24.1-119.3-24.1s-81.5 8.1-119.3 24.1c-36.5 15.4-69.3 37.5-97.4 65.7s-50.3 61-65.7 97.4C78.1 438 70 478.1 70 519.5s8.1 81.5 24.1 119.3c15.4 36.5 37.5 69.3 65.7 97.4 28.2 28.2 61 50.3 97.4 65.7C295 817.9 335.1 826 376.5 826m0 70C168.6 896 0 727.4 0 519.5S168.6 143 376.5 143 753 311.6 753 519.5 584.4 896 376.5 896zM274.5 759.9c8.8 8.8 18 17 27.5 24.6-37.3-13.6-72.2-35.3-102.1-65.2-109.7-109.7-109.7-287.7 0-397.4 33.2-33.2 72.6-56.3 114.4-69.4-13.9 10.1-27.2 21.5-39.8 34.1-130.7 130.7-130.7 342.6 0 473.3zM998.3-102.3c-34.2-34.2-90.2-34.2-124.5 0L622.2 149.4c-34.2 34.2-34.2 90.2 0 124.5 34.2 34.2 90.2 34.2 124.5 0l251.7-251.7c34.2-34.3 34.2-90.3-0.1-124.5z"  horiz-adv-x="1024" />

    
    <glyph glyph-name="ceshi" unicode="&#58921;" d="M868.1 24.2c-8.4 0-16.9 3-23.6 9.1-14.3 13-15.3 35.2-2.3 49.4 74.6 81.9 115.7 188.1 115.7 299 0 244.8-199.2 444-444 444S70 626.5 70 381.7c0-101.7 33.4-197.3 96.7-276.6 12.1-15.1 9.6-37.1-5.5-49.2-15.1-12.1-37.1-9.6-49.2 5.5-35.6 44.6-63.2 94.3-82.3 147.7C10 264.4 0 322.5 0 381.7c0 69.4 13.6 136.7 40.4 200.1 25.9 61.2 63 116.2 110.1 163.4 47.2 47.2 102.2 84.3 163.4 110.1C377.3 882.1 444.6 895.7 514 895.7s136.7-13.6 200.1-40.4c61.2-25.9 116.2-62.9 163.4-110.1C924.6 698 961.7 643 987.6 581.8c26.8-63.4 40.4-130.7 40.4-200.1 0-128.4-47.6-251.3-134-346.1-6.9-7.6-16.4-11.4-25.9-11.4zM681.3 403.2c0.1 0.2 0.2 0.3 0.2 0.5 36.6 76.2 40.7 216.6-1.6 236.9-4.1 2-8.8 2.9-14 2.9-48.1 0-138.1-79.1-171.9-147.5-98.9-10-176-93.5-176-195 0-108.2 87.8-196 196-196s196 87.8 196 196c0 34.2-8.8 66.4-24.2 94.4-1.5 2.7-3 5.2-4.5 7.8z m-78.2-191.3C579.3 188.1 547.7 175 514 175s-65.3 13.1-89.1 36.9C401.1 235.7 388 267.3 388 301s13.1 65.3 36.9 89.1c23.8 23.8 55.4 36.9 89.1 36.9 22.7 0 44.9-6.1 64.2-17.6 4.5-2.7 8.9-5.7 13.1-8.9 13.7-10.6 24.8-23.7 33.2-38.8C634.8 343 640 322.6 640 301c0-33.7-13.1-65.3-36.9-89.1z"  horiz-adv-x="1028" />

    
    <glyph glyph-name="duixiang" unicode="&#58922;" d="M359.2 508.8c-34.2 4.7-65.7 20.3-90.5 45.1C238.6 584 222 624 222 666.6c0 42.6 16.6 82.6 46.7 112.7C298.8 809.4 338.8 826 381.4 826c42.6 0 82.6-16.6 112.7-46.7 24.9-24.9 40.5-56.6 45.2-90.9 14.5 2.9 29.5 4.4 44.8 4.4 8.6 0 17-0.5 25.3-1.4C597.1 806.4 499.7 896 381.4 896 254.7 896 152 793.3 152 666.6c0-76.4 37.4-144.1 94.8-185.8 35.9 14.1 73.4 22.7 112 25.6 0.1 0.8 0.3 1.6 0.4 2.4zM358.8 506.5c-38.5-2.9-76-11.5-112-25.6-3.1-1.2-6.2-2.5-9.3-3.8-46.3-19.6-87.9-47.6-123.6-83.3s-63.7-77.3-83.3-123.6C10.3 222.2 0 171.2 0 118.7h70c0 164.9 125.7 300.8 286.4 317.2-1.1 9-1.6 18.2-1.6 27.4-0.1 14.8 1.3 29.2 4 43.2zM514.9 307.2c-30.1 30.1-46.7 70.1-46.7 112.7 0 42.6 16.6 82.6 46.7 112.7 30.1 30.1 70.1 46.7 112.7 46.7 42.6 0 82.6-16.6 112.7-46.7 30.1-30.1 46.7-70.1 46.7-112.7 0-42.6-16.6-82.6-46.7-112.7-27.5-27.5-63.3-43.7-101.8-46.3 44.3-0.4 87.5-8.1 128.7-23 54.6 41.9 89.8 107.9 89.8 182 0 126.7-102.7 229.4-229.4 229.4S398.2 546.6 398.2 419.9c0-76.4 37.4-144.1 94.8-185.8 40.9 16.1 83.8 25 128 26.5-40.1 1.7-77.5 18-106.1 46.6zM621.5 190.6c2-0.1 4.1-0.1 6.1-0.1 4.1 0 8.3 0.1 12.3 0.3-1.6 0-3.2 0.1-4.8 0.1-4.6 0-9.1-0.1-13.6-0.3zM993.4 23.4c-19.6 46.3-47.6 87.9-83.3 123.6s-77.3 63.7-123.6 83.3c-6.4 2.7-12.8 5.2-19.3 7.6-41.2 14.9-84.4 22.6-128.7 23h-3.4c-4.7 0-9.4-0.1-14.1-0.3-44.2-1.6-87.1-10.5-128-26.5-3.1-1.2-6.2-2.5-9.3-3.8-46.3-19.6-87.9-47.6-123.6-83.3s-63.7-77.3-83.3-123.6c-20.3-48-30.6-98.9-30.6-151.4h70c0 171.3 135.7 311.4 305.3 318.6 4.5 0.2 9.1 0.3 13.6 0.3 1.6 0 3.2 0 4.8-0.1 173.6-2.6 314-144.6 314-318.8h70c0.1 52.5-10.2 103.4-30.5 151.4z"  horiz-adv-x="1024" />

    
    <glyph glyph-name="duixiangdingyi" unicode="&#58923;" d="M900.3 40c-21 29.2-38.1 49.8-51.4 61.9-13.1 12.1-28.9 21.3-47 27.9v1.8c97.8 23.1 146.7 73.6 146.7 151.4 0 47.4-18.1 84.2-54.5 110.5-36.4 26.3-86.6 39.4-150.9 39.4H542V-128h85.3V108.2h61.4c25.2 0 47-5.7 65.2-16.8 18.1-11.3 38.1-32.5 60.1-63.6L923.5-128H1024L900.3 40zM727.8 171.4H627.3v198h101.8c42.3 0 74.5-8.1 96.7-24.6 22.2-16.4 33.2-39.3 33.2-68.5 0-31.4-12.1-56.8-36.4-76.1s-55.9-28.8-94.8-28.8zM622.6 652.2C622.6 786.8 513.4 896 378.8 896S135 786.8 135 652.2c0-83.2 41.7-156.6 105.3-200.6-3-1.2-5.9-2.4-8.9-3.6-45.1-19.1-85.6-46.4-120.4-81.2-34.8-34.8-62.1-75.3-81.2-120.4C10 199.7 0 150 0 98.9h70c0 170.3 138.5 308.8 308.8 308.8 49.4 0 96.2-11.7 137.7-32.4V458.4h10.3c58.2 44.5 95.8 114.8 95.8 193.8zM501.7 529.3c-32.8-32.8-76.5-50.9-122.9-50.9s-90.1 18.1-122.9 50.9C223 562.1 205 605.8 205 652.2c0 46.4 18.1 90.1 50.9 122.9C288.7 807.9 332.4 826 378.8 826s90.1-18.1 122.9-50.9c32.8-32.8 50.9-76.5 50.9-122.9 0-46.4-18.1-90.1-50.9-122.9z"  horiz-adv-x="1024" />

    
    <glyph glyph-name="huitiao" unicode="&#58924;" d="M821.497756 331.751024H201.50322c-11.588683 0-20.979512-6.493659-20.979513-14.485853v-40.860098c0-7.992195 9.390829-14.485854 20.979513-14.485853h541.471219L600.513561 119.258537c-13.686634-13.686634-13.686634-35.765073 0-49.451708 13.686634-13.686634 35.765073-13.686634 49.451707 0L832.187317 252.12878c6.693463 6.693463 10.090146 15.285073 10.190049 24.076488v41.059903c0.099902 7.992195-9.290927 14.485854-20.87961 14.485853zM821.497756 507.179707h-541.471219L422.587317 649.740488c13.686634 13.686634 13.686634 35.765073 0 49.451707-13.686634 13.686634-35.765073 13.686634-49.451707 0L190.813659 516.870244c-6.693463-6.693463-10.090146-15.285073-10.190049-24.076488v-41.059902c0-7.992195 9.390829-14.485854 20.979512-14.485854h619.894634c11.588683 0 20.979512 6.493659 20.979512 14.485854v40.860097c0 8.092098-9.390829 14.585756-20.979512 14.585756zM992.03122 517.869268c-19.281171 0-34.965854 15.684683-34.965854 34.965854V745.546927c0 44.356683-36.06478 80.521366-80.521366 80.521366H150.453073C105.996488 826.068293 69.931707 790.003512 69.931707 745.546927v-190.813659c0-19.281171-15.684683-34.965854-34.965853-34.965853s-34.965854 15.684683-34.965854 34.965853v190.813659C0 828.565854 67.434146 896 150.453073 896h726.190829c82.919024 0 150.453073-67.434146 150.453074-150.453073v-192.711805c-0.099902-19.281171-15.784585-34.965854-35.065756-34.965854zM876.544-128H150.453073C67.434146-128 0-60.565854 0 22.453073v190.813659c0 19.281171 15.684683 34.965854 34.965854 34.965853s34.965854-15.684683 34.965853-34.965853v-190.813659c0-44.356683 36.06478-80.521366 80.521366-80.521366h726.190829c44.356683 0 80.521366 36.06478 80.521366 80.521366V215.164878c0 19.281171 15.684683 34.965854 34.965854 34.965854s34.965854-15.684683 34.965854-34.965854v-192.711805c-0.099902-83.018927-67.534049-150.453073-150.552976-150.453073z"  horiz-adv-x="1028" />

    
    <glyph glyph-name="quxiao" unicode="&#58925;" d="M512 824c59.4 0 117-11.6 171.2-34.5 52.4-22.2 99.4-53.9 139.9-94.3 40.4-40.4 72.2-87.5 94.3-139.9C940.4 501 952 443.4 952 384s-11.6-117-34.5-171.2c-22.2-52.4-53.9-99.4-94.3-139.9-40.4-40.4-87.5-72.2-139.9-94.3C629-44.4 571.4-56 512-56s-117 11.6-171.2 34.5c-52.4 22.2-99.4 53.9-139.9 94.3-40.4 40.4-72.2 87.5-94.3 139.9C83.6 267 72 324.6 72 384s11.6 117 34.5 171.2c22.2 52.4 53.9 99.4 94.3 139.9 40.4 40.4 87.5 72.2 139.9 94.3C395 812.4 452.6 824 512 824m0 72C229.2 896 0 666.8 0 384s229.2-512 512-512 512 229.2 512 512S794.8 896 512 896zM350.8 186.8c-9.2 0-18.4 3.5-25.5 10.5-14.1 14.1-14.1 36.9 0 50.9l322.4 322.4c14.1 14.1 36.9 14.1 50.9 0 14.1-14.1 14.1-36.9 0-50.9L376.3 197.3c-7.1-7-16.3-10.5-25.5-10.5zM673.2 186.8c-9.2 0-18.4 3.5-25.5 10.5L325.3 519.7c-14.1 14.1-14.1 36.9 0 50.9 14.1 14.1 36.9 14.1 50.9 0l322.4-322.4c14.1-14.1 14.1-36.9 0-50.9-7-7-16.2-10.5-25.4-10.5z"  horiz-adv-x="1024" />

    
    <glyph glyph-name="queding" unicode="&#58926;" d="M512 824c59.4 0 117-11.6 171.2-34.5 52.4-22.2 99.4-53.9 139.9-94.3 40.4-40.4 72.2-87.5 94.3-139.9C940.4 501 952 443.4 952 384s-11.6-117-34.5-171.2c-22.2-52.4-53.9-99.4-94.3-139.9-40.4-40.4-87.5-72.2-139.9-94.3C629-44.4 571.4-56 512-56s-117 11.6-171.2 34.5c-52.4 22.2-99.4 53.9-139.9 94.3-40.4 40.4-72.2 87.5-94.3 139.9C83.6 267 72 324.6 72 384s11.6 117 34.5 171.2c22.2 52.4 53.9 99.4 94.3 139.9 40.4 40.4 87.5 72.2 139.9 94.3C395 812.4 452.6 824 512 824m0 72C229.2 896 0 666.8 0 384s229.2-512 512-512 512 229.2 512 512S794.8 896 512 896zM425 181.1c-20.7 0-40.2 8.1-54.8 22.7L222.4 351.6c-14.1 14.1-14.1 36.9 0 50.9 14.1 14.1 36.9 14.1 50.9 0l147.8-147.8c1.3-1.3 2.9-1.6 3.9-1.6s2.6 0.3 3.9 1.6l321.7 321.6c14.1 14.1 36.9 14.1 50.9 0 14.1-14.1 14.1-36.9 0-50.9L479.9 203.8c-14.7-14.6-34.1-22.7-54.9-22.7z"  horiz-adv-x="1024" />

    
    <glyph glyph-name="tianjiahtml" unicode="&#58927;" d="M577.7 826L954 449.7V-58H70V826h507.7m29 70H0v-1024h1024V478.7L606.7 896zM294.3 432.3c-19.3 0-35 15.7-35 35V756c0 19.3 15.7 35 35 35s35-15.7 35-35v-288.7c0-19.3-15.6-35-35-35zM438.7 576.7H150c-19.3 0-35 15.7-35 35s15.7 35 35 35h288.7c19.3 0 35-15.7 35-35s-15.7-35-35-35zM362.1 17c-5.7 0-11.4 1.4-16.7 4.3L133.3 136.8c-11.3 6.1-18.3 17.9-18.3 30.7s7 24.6 18.3 30.7l212.1 115.5c17 9.2 38.2 3 47.5-14s3-38.2-14-47.5l-155.7-84.8 155.7-84.8c17-9.2 23.2-30.5 14-47.5-6.4-11.5-18.4-18.1-30.8-18.1zM661.9 17c-12.4 0-24.4 6.6-30.8 18.3-9.2 17-3 38.2 14 47.5l155.7 84.8-155.7 84.8c-17 9.2-23.2 30.5-14 47.5s30.5 23.2 47.5 14l212.1-115.5c11.3-6.1 18.3-17.9 18.3-30.7s-7-24.6-18.3-30.7L678.6 21.3c-5.3-2.9-11-4.3-16.7-4.3zM590.1 20.7c-5.6 0-11 3.2-13.5 8.5L423.7 349.6c-3.6 7.5-0.4 16.4 7.1 20 7.5 3.6 16.4 0.4 20-7.1l152.8-320.3c3.6-7.5 0.4-16.4-7.1-20-2-1-4.2-1.5-6.4-1.5z"  horiz-adv-x="1024" />

    
    <glyph glyph-name="sousuowenjian" unicode="&#58928;" d="M466.867379-128H156.486019C71.583495-128 2.48835-58.109515 2.48835 27.787184V740.212816C2.48835 826.109515 71.583495 896 156.486019 896H745.136893c85.001942 0 154.097087-69.890485 154.097088-155.787184v-145.34835c0-19.784078-16.006214-35.790291-35.790292-35.790291s-35.790291 16.006214-35.790291 35.790291V740.212816C827.653398 786.640777 790.670097 824.419417 745.236311 824.419417H156.486019C111.052233 824.419417 74.068932 786.640777 74.068932 740.212816v-712.525049c0-46.427961 36.983301-84.206602 82.417087-84.206602H466.767961c19.784078 0 35.790291-16.006214 35.790291-35.790291s-16.006214-35.690874-35.690873-35.690874zM633.78932 433.708738c45.632621 0 88.580971-17.795728 120.891651-50.106408S804.787379 308.343301 804.787379 262.71068s-17.795728-88.580971-50.106408-120.891651S679.421942 91.712621 633.78932 91.712621s-88.580971 17.795728-120.89165 50.106408S462.791262 217.078058 462.791262 262.71068s17.795728 88.580971 50.106408 120.89165S588.156699 433.708738 633.78932 433.708738m0 71.580582c-134.014757 0-242.578641-108.563883-242.57864-242.57864s108.563883-242.578641 242.57864-242.578641 242.578641 108.563883 242.578641 242.578641-108.563883 242.578641-242.578641 242.57864zM976.779612-116.069903c-9.146408 0-18.292816 3.479612-25.351457 10.438835l-172.986407 172.986408c-14.017864 14.017864-14.017864 36.685049 0 50.603495 14.017864 14.017864 36.685049 14.017864 50.603495 0l172.986407-172.986408c14.017864-14.017864 14.017864-36.685049 0-50.603495-6.959223-6.959223-16.105631-10.438835-25.252038-10.438835zM525.424272 585.320388H50.208738c-19.784078 0-35.790291 16.006214-35.790291 35.790292s16.006214 35.790291 35.790291 35.790291h475.215534c19.784078 0 35.790291-16.006214 35.790291-35.790291s-16.006214-35.790291-35.790291-35.790292zM296.764078 348.209709H50.208738c-19.784078 0-35.790291 16.006214-35.790291 35.790291s16.006214 35.790291 35.790291 35.790291h246.55534c19.784078 0 35.790291-16.006214 35.790291-35.790291s-16.006214-35.790291-35.790291-35.790291zM306.705825 111.099029H50.208738c-19.784078 0-35.790291 16.006214-35.790291 35.790291s16.006214 35.790291 35.790291 35.790292h256.497087c19.784078 0 35.790291-16.006214 35.790292-35.790292s-16.006214-35.790291-35.790292-35.790291z"  horiz-adv-x="1024" />

    
    <glyph glyph-name="mobansheji" unicode="&#58929;" d="M391.869261 122.122957l-152.40467 149.914397L143.638911 16.435798l248.23035 105.687159z m489.089494 479.228016L723.673152 763.51751 267.754086 313.774319l163.461478-169.537743 449.743191 457.114397z m129.593774 123.915953c21.316732 24.006226 0 70.12607 0 70.12607s-41.637354 46.119844-89.550194 81.083269c-47.91284 34.963424-84.868482 0-84.868483 0L755.050584 795.392996l164.656809-164.059144c0.099611 0 69.428794 69.926848 90.845136 93.933074zM859.143969-128h-694.287938C73.911284-128 0-54.088716 0 36.856031v694.287938C0 822.088716 73.911284 896 164.856031 896h495.165759v-69.727626H164.856031C112.361089 826.272374 69.727626 783.638911 69.727626 731.143969v-694.387549c0-52.395331 42.633463-95.128405 95.128405-95.128404h694.387549c52.395331 0 95.128405 42.633463 95.128404 95.128404V531.922179h69.727627v-495.165759c-0.099611-90.845136-74.010895-164.75642-164.955642-164.75642zM850.677043 402.428016v-196.333074c0-90.845136-73.911284-164.856031-164.856031-164.856031h-196.233463v69.727626h196.333074c52.395331 0 95.128405 42.633463 95.128404 95.128405V402.428016M204.202335 687.81323m-34.863814 0a34.863813 34.863813 0 1 1 69.727627 0 34.863813 34.863813 0 1 1-69.727627 0ZM204.202335 588.202335v-199.22179 199.22179m34.863813 34.863813h-69.727627v-268.949416h69.727627V623.066148z"  horiz-adv-x="1028" />

    
    <glyph glyph-name="tianjiafenzu" unicode="&#58930;" d="M1024-128H428.8v70H954V456.2h70zM796 826v-726H70V826h726m70 70H0v-866h866V896zM200.2 498h465.6v-70H200.2zM398 695.8h70v-465.6h-70z"  horiz-adv-x="1024" />

    
    <glyph glyph-name="yijianshanchu" unicode="&#58931;" d="M347.014485 368.182241c-9.199671 0-16.699402-7.499732-16.699402-16.699402l29.998926-361.387066c0-9.199671 7.499732-16.699402 16.699403-16.699402s16.699402 7.499732 16.699402 16.699402l-29.998926 361.387066c0.099996 9.199671-7.399735 16.699402-16.699403 16.699402zM510.508634 368.182241c-8.399699-0.699975-15.199456-8.599692-15.199456-17.099388v-360.587094c0-8.399699 6.799757-16.299417 15.199456-17.099388 9.899646-0.899968 18.199349 6.899753 18.199348 16.699402V351.482839c0 9.699653-8.299703 17.499374-18.199348 16.699402zM677.002675 368.182241c-9.199671 0-16.699402-7.499732-16.699403-16.699402l-29.998926-361.387066c0-9.199671 7.499732-16.699402 16.699402-16.699402s16.699402 7.499732 16.699403 16.699402l29.998926 361.387066c0 9.199671-7.499732 16.699402-16.699402 16.699402zM802.59818 441.379621H210.119385c-7.799721 0-13.899503-6.899753-12.899538-14.599477 0.099996-0.599979 0.099996-1.299953 0.099996-1.899932v-0.199993c0-1.099961 0.099996-2.099925 0.399986-3.099889 0.099996-0.499982 0.299989-0.999964 0.299989-1.499946l57.297949-461.983465c0.099996-0.499982 0.099996-0.899968 0.099997-1.39995 0.399986-46.698329 38.498622-84.696969 85.396943-84.696969h342.587739c46.798325 0 84.996958 37.898644 85.396943 84.696969 0 0.499982 0 0.899968 0.099997 1.39995l57.297949 461.983465 0.299989 1.499946c0.299989 0.999964 0.399986 1.999928 0.399986 3.099889v0.199993c0 0.599979 0 1.299953 0.099996 1.899932 0.999964 7.799721-5.099817 14.599477-12.899538 14.599477h-11.499588z m-67.297592-483.282702c-0.099996-0.499982-0.099996-0.899968-0.099996-1.39995-0.399986-28.298987-23.499159-51.198168-51.898143-51.198168H340.714711c-28.398984 0-51.498157 22.89918-51.898143 51.198168 0 0.499982 0 0.899968-0.099996 1.39995l-53.998068 435.28442c-0.999964 7.799721 5.099817 14.599477 12.899539 14.599478h528.481085c7.799721 0 13.899503-6.899753 12.899538-14.599478l-53.698078-435.28442zM1005.190929 353.882753L874.39561 544.7759209999999c20.899252 22.699188 26.399055 53.398089 11.599585 75.097312s-45.498372 27.599012-74.197345 16.299416L681.002532 827.165814c-4.999821 7.299739-16.399413 8.199707-25.599084 1.899932S643.003892 811.866361 648.003713 804.566622l324.188397-473.28306c4.999821-7.299739 16.399413-8.199707 25.599083-1.899932s12.399556 17.199384 7.399736 24.499123zM295.716321 671.37139l-25.799076-17.59937c-9.099674-6.199778-13.899503-17.299381-12.699546-28.998963 1.39995-12.799542 9.699653-23.799148 21.699224-28.698972l0.599978-0.29999 186.193336-56.297985c4.899825-1.599943 9.899646-2.399914 14.79947-2.399914 9.199671 0 18.299345 2.7999 26.199063 8.199707 12.099567 8.299703 19.399306 21.399234 20.09928 35.998711l15.399449 193.893061v0.699975c-0.099996 12.599549-6.999749 23.999141-17.999356 29.698937-11.399592 5.899789-24.799112 4.899825-35.798718-2.699904l-29.598941-20.199277c-19.899288 25.499087-60.497835 67.497584-126.29548 92.796679C290.416511 891.663505 244.418157 898.363265 195.819897 895.263376 138.021965 891.563509 76.024184 874.064135 11.426496 843.165241l-1.09996-0.499982-0.999965-0.699975C2.326822 837.165456-1.273049 828.565764 0.42689 820.56605c1.599943-7.699724 7.799721-13.39952 15.999427-14.999463l1.899932-0.29999 1.899932 0.099997c165.294084 12.199563 228.291829-65.597652 275.49014-133.995204z"  horiz-adv-x="1024" />

    
    <glyph glyph-name="xinxi" unicode="&#58932;" d="M828.762646-25.201556c-14.244358 0-24.205447 2.291051-29.883269 6.873151-5.677821 4.582101-8.666148 13.148638-8.666147 25.500389 0 4.980545 0.896498 12.451362 2.689494 22.014008 1.593774 8.765759 3.585992 17.332296 5.976653 25.898833l27.392997 94.032685c2.789105 9.263813 4.681712 18.826459 5.57821 28.488716 0.996109 10.359533 1.494163 17.631128 1.494163 21.615564 0 19.822568-7.072374 35.959533-21.515953 48.410895s-34.764202 18.627237-61.16109 18.627237c-14.642802 0-30.08249-2.589883-46.717509-7.570428s-33.768093-11.256031-51.598444-18.228794l-7.371206-29.185992c5.279377 1.992218 11.654475 3.984436 19.224902 6.275487 7.072374 2.091829 14.44358 3.187549 21.914397 3.187548 14.543191 0 24.205447-2.390661 29.285603-7.072373 5.080156-4.681712 7.670039-13.248249 7.670039-25.201557-0.099611-7.470817-0.896498-14.941634-2.589883-22.213229-1.693385-8.068482-3.685603-16.635019-6.076264-25.699611l-27.392997-94.53074c-2.19144-8.86537-3.984436-17.730739-5.279377-26.79533-1.09572-7.670039-1.693385-15.439689-1.693385-23.209339 0-19.324514 7.371206-35.461479 22.213229-48.112062 14.842023-12.650584 35.262257-18.826459 61.858366-18.826459 17.332296 0 32.473152 2.291051 45.522179 6.67393 13.148638 4.382879 30.580545 10.757977 52.594553 19.224902l7.271595 29.285604c-5.976654-2.490272-12.052918-4.48249-18.328405-5.976654-7.271595-2.19144-14.842023-3.38677-22.412451-3.486381zM745.886381 379.119066c0-16.336187 6.375097-30.281712 19.324514-41.836576s28.289494-17.332296 46.219455-17.332295 33.270039 5.877043 46.119845 17.332295c12.750195 11.455253 19.025681 25.500389 19.02568 41.836576s-6.474708 30.480934-19.02568 42.135409C844.700389 432.908949 829.2607 438.785992 811.43035 438.785992c-17.929961 0-33.469261-5.877043-46.219455-17.531517s-19.324514-25.6-19.324514-42.135409zM934.250584 671.576654l-0.298833 0.697276c-0.099611 0.199222-0.298833 0.398444-0.398444 0.597665l-2.29105 5.080156c-0.099611-0.099611-0.398444-0.298833-0.996109-0.498055 0 0-0.099611 0-0.099611-0.09961C844.301946 798.580545 707.038132 880.859144 550.150973 892.414008c15.041245-2.888716 29.783658-7.470817 44.028015-13.547082-14.244358 6.076265-28.98677 10.558755-43.928404 13.447471-12.550973 0.896498-25.301167 1.394553-38.150973 1.394552s-25.500389-0.498054-38.150973-1.394552c-18.129183-3.38677-35.859922-9.263813-52.893385-17.332296 17.033463 8.068482 34.664591 13.945525 52.793774 17.332296C209.182879 872.890272 0 651.953307 0 382.90428c0-281.898833 229.503502-510.90428 512-510.90428 66.838911 0 130.689494 12.849805 189.161089 36.059144-7.670039 3.785214-14.742412 8.466926-21.117509 13.845914-5.378988 4.681712-10.259922 9.761868-14.343969 15.041246-0.498054 0.697276-1.09572 1.394553-1.593774 1.992217-10.160311-3.38677-20.420233-6.474708-30.779767-9.263813 10.359533 2.789105 20.619455 5.877043 30.779767 9.363424-8.566537 11.654475-14.244358 24.803113-16.834242 39.047471-33.270039-31.775875-70.922957-52.29572-110.966537-58.172763v0.099611c-3.984436-0.597665-8.068482-0.996109-12.152529-1.294941 4.084047 0.298833 8.068482 0.796887 12.152529 1.294941V162.166537c20.519844-0.398444 40.541634-1.394553 59.965759-2.789105l11.455253 45.322957c-23.010117 1.693385-46.817121 2.888716-71.421012 3.28716-14.44358 0.298833-29.185992 0.298833-44.127626 0v-288.572763c-90.446693 10.957198-168.940078 95.825681-214.362646 219.044358-14.045136-2.888716-28.289494-6.175875-42.533852-9.761868 28.389105-77.696498 69.129961-142.543191 118.138521-187.268482-86.263035 31.078599-160.871595 86.761089-215.159533 158.580545h-0.099611c-9.263813 12.25214-17.929961 24.902724-25.898832 38.051361-9.363424-3.38677-18.92607-6.873152-28.389105-10.658365v0.099611c9.463035 3.685603 19.025681 7.271595 28.389105 10.658365-40.342412 66.042023-64.747082 142.742412-67.83502 224.921401H192.249027c1.792996-68.133852 12.052918-132.880934 28.986771-191.551751 14.244358 3.585992 28.389105 6.972763 42.434241 9.96109-15.838132 55.284047-25.400778 116.743969-27.193774 181.590661h-0.099611c-0.099611 7.271595-0.199222 14.642802-0.199222 22.014008 0-7.371206 0.099611-14.742412 0.298833-22.014008h255.701167v-155.094163c14.941634 0.298833 29.684047 0.298833 44.127626 0.099611V363.081712h176.709728c-0.996109 5.378988-1.494163 10.857588-1.494163 16.535409 0 9.562646 1.394553 18.826459 4.183657 27.492607H536.205447V554.832685c86.462257 1.195331 163.361868 11.554864 226.614786 24.603891-3.785214 13.746304-7.968872 27.193774-12.451361 40.242801 4.582101-13.049027 8.666148-26.396887 12.451361-40.242801 14.941634 3.087938 29.185992 6.275486 42.533853 9.662257-4.183658 15.240467-8.765759 29.883268-13.845915 44.326848h0.099611c5.080156-14.343969 9.662257-29.185992 13.845914-44.426459 45.920623 11.355642 82.37821 23.40856 106.982102 32.871595 38.449805-63.352529 62.157198-136.466926 66.540077-214.761089h0.199222c0.498054-8.765759 0.796887-17.531518 0.796887-26.396888-0.099611-5.877043-0.199222-11.754086-0.398443-17.631128h-0.099611c0.199222 5.877043 0.298833 11.754086 0.298833 17.631128 0 8.86537-0.298833 17.631128-0.796888 26.396888h-71.3214c2.888716-8.765759 4.283268-17.929961 4.283268-27.492607 0-5.677821-0.498054-11.15642-1.494163-16.535409h68.930739c-2.988327-80.884047-26.69572-156.389105-65.743191-221.634241-13.049027 4.781323-29.584436 10.359533-49.108171 16.236576-1.09572-6.175875-2.589883-12.152529-4.382879-18.029572l-7.76965-26.69572c13.148638-3.984436 24.703502-7.76965 34.664591-11.15642 9.562646 12.750195 18.428016 25.799222 26.496499 39.545525-8.168093-13.646693-17.033463-26.894942-26.596109-39.645136h0.09961c-16.834241-22.412451-35.561089-43.231128-55.981323-62.25681-1.294942-5.179767-2.490272-10.558755-3.38677-15.838132l-0.099611-0.498054c-1.195331-6.375097-1.693385-10.459144-1.892607-12.849806 0.996109 0 2.091829-0.099611 3.386771-0.099611 4.183658 0.099611 8.367315 0.697276 12.351751 1.992218l0.996109 0.298833 0.996108 0.199222c4.582101 1.09572 9.064591 2.589883 13.34786 4.382879l21.217121 8.765759c18.328405 18.726848 35.162646 38.748638 50.502724 60.065369 0.298833-0.099611 0.498054-0.199222 0.498054-0.298832l1.693385 3.585992c58.670817 83.175097 93.235798 184.479377 93.235798 293.752529 0.099611 107.081712-32.971206 206.493385-89.649805 288.672374zM492.277043-80.585214c6.574319-0.796887 13.049027-1.195331 19.722957-1.195331-6.67393 0-13.248249 0.398444-19.722957 1.195331z m44.028015-23.209339h-44.127626 44.127626z m-44.127626 18.029572c-10.359533 0.398444-20.619455 1.195331-30.779767 2.291051 10.160311-1.09572 20.420233-1.892607 30.779767-2.291051z m-120.130739 20.918288c-6.175875 1.892607-12.351751 3.984436-18.428016 6.175876l-0.099611 0.099611c6.076265-2.291051 12.25214-4.382879 18.527627-6.275487zM512 851.971984z m400.535409-230.101167c-8.068482 13.34786-16.834241 26.197665-26.197666 38.649027-23.40856-7.968872-55.483268-17.730739-94.63035-27.094163C766.007782 706.7393 729.450584 768.896498 685.422568 814.319066 645.677821 830.256809 603.143969 840.815564 558.817121 845.198444c80.784436-23.40856 149.515953-106.185214 190.157198-220.936965h-0.199222v-0.099611c-59.766537-11.853696-131.785214-21.316732-212.470039-22.810895V846.891829c-8.068482 0.398444-16.136965 0.597665-24.305058 0.597665-6.67393 0-13.248249-0.099611-19.822568-0.398443v-245.740078c14.941634-0.298833 29.584436-0.298833 44.028015 0v-0.099611c-14.44358-0.298833-29.086381-0.298833-44.028015 0v0.099611c-67.635798 1.294942-140.351751 8.466926-216.454475 24.603891-4.980545-14.045136-9.662257-28.588327-13.746303-43.629572 81.182879-17.929961 158.480934-25.799222 230.101167-27.392996v-147.822568H236.476265c1.693385 62.456031 10.658366 121.624903 25.500389 175.315175-14.045136 3.087938-28.189883 6.474708-42.334631 10.160311-15.937743-57.077043-25.500389-119.732296-27.293385-185.475486h-147.424124v0H24.305058v0.099611h20.619456c4.48249 79.788327 29.086381 154.197665 68.831128 218.446692 35.859922-13.049027 71.122179-24.006226 105.78677-33.070817 4.183658 14.842023 8.765759 29.285603 13.646693 43.330739-30.680156 7.76965-61.758755 17.033463-93.136187 27.891051-4.681712-6.175875-9.263813-12.351751-13.646692-18.726848 4.382879 6.375097 8.964981 12.650584 13.547081 18.726848-12.750195 4.48249-25.6 9.164202-38.549416 14.144747l-15.439689-41.736965 15.439689 41.836576c12.949416-4.980545 25.799222-9.761868 38.549416-14.144747 51.000778 66.440467 119.433463 118.935409 198.524514 150.412451-43.529961-44.924514-79.788327-106.284825-105.288716-178.502724-4.980545-14.045136-9.562646-28.488716-13.646693-43.231128 14.244358-3.685603 28.389105-7.072374 42.334631-10.160311 4.084047 14.941634 8.666148 29.484825 13.746303 43.529961C316.364202 739.810117 384.796887 821.889494 465.182879 845.198444c0.199222 0.099611 0.398444 0.099611 0.498055 0.09961 8.765759 0.896498 17.531518 1.494163 26.496498 1.892607 6.574319 0.199222 13.148638 0.398444 19.822568 0.398444 8.168093 0 16.136965-0.199222 24.205447-0.597665 7.670039-0.398444 15.140856-0.996109 22.611674-1.792996-7.470817 2.19144-14.842023 3.785214-22.512063 4.980544 7.570428-1.09572 15.140856-2.789105 22.611674-4.980544 44.227237-4.382879 86.661479-14.941634 126.406225-30.779767l0.099611-0.099611c80.385992-32.074708 149.715175-85.764981 200.915175-153.799222h0.099611c9.263813-12.351751 18.029572-25.301167 26.098055-38.649027 21.715175 8.367315 34.365759 14.642802 36.357976 16.435798-1.693385-1.693385-14.343969-7.968872-36.357976-16.435798z m36.258365-494.368871c-0.597665 0.298833-1.792996 0.796887-3.486381 1.494163 1.693385-0.697276 2.888716-1.294942 3.486381-1.494163zM811.928405 474.14786c5.179767 0 10.259922-0.398444 15.340077-1.09572-4.382879 40.442023-11.853696 79.389883-21.814786 115.947082-13.34786-3.28716-27.592218-6.574319-42.533852-9.662257 9.263813-34.266148 16.136965-70.823346 20.320623-108.974319 9.164202 2.490272 18.726848 3.785214 28.687938 3.785214zM473.849027 892.414008c12.550973 0.896498 25.301167 1.394553 38.150973 1.394552 12.849805 0 25.500389-0.498054 38.150973-1.394552C537.6 894.804669 524.849805 896 512 896s-25.6-1.195331-38.150973-3.585992zM264.765759 178.203891c-0.298833 1.09572-0.697276 2.19144-0.996109 3.28716-14.045136-3.087938-28.189883-6.375097-42.434241-9.96109-35.760311-9.064591-72.118288-20.121401-108.97432-33.469261 8.068482-13.148638 16.73463-25.898833 25.998444-38.150972 32.771984 11.355642 65.045914 20.918288 96.921401 28.887159 14.244358 3.585992 28.488716 6.773541 42.533852 9.761868-1.294942 3.486381-2.490272 6.972763-3.785214 10.459144 1.195331-3.486381 2.490272-6.972763 3.785214-10.459144 75.405447 15.738521 147.424125 22.611673 214.362646 23.707393v45.721401c-71.122179-1.394553-147.922179-9.164202-228.407782-26.496498 0.298833-1.09572 0.697276-2.19144 0.996109-3.28716z"  horiz-adv-x="1027" />

    
    <glyph glyph-name="zidongshengcheng" unicode="&#58933;" d="M320.747082-128H0V896h1024v-501.540856h-69.727626V826.272374H69.727626v-884.544748h251.019456zM903.171984 226.614786L786.228794 109.771206h87.657587c0-96.722179-78.592996-175.315175-175.315175-175.315175-28.588327-0.099611-56.678599 6.972763-81.780545 20.420234l-42.633463-42.633463c37.154864-23.707393 80.385992-36.258366 124.513619-36.258366C827.766537-124.015564 932.357977-19.424125 932.357977 109.771206h87.657587L903.171984 226.614786zM523.256031 109.771206c0 96.722179 78.592996 175.315175 175.315175 175.315175 29.484825 0 57.575097-7.271595 81.780545-20.420233l42.633463 42.633463c-37.154864 23.707393-80.385992 36.258366-124.513619 36.258366-129.195331 0-233.78677-104.59144-233.78677-233.786771h-87.657588L494.070039-7.171984l116.84358 116.843579h-87.657588v0.099611zM806.848249 654.642802H139.455253V600.155642h667.392996zM517.976654 413.185992H139.455253v-54.387548h378.521401zM309.789883 171.828794H139.455253v-54.48716h170.33463z"  horiz-adv-x="1028" />

    
    <glyph glyph-name="xiaoyanbaocun" unicode="&#58934;" d="M429.62179 861.136187c5.976654 0 12.949416-1.992218 17.83035-5.080156 3.785214-2.490272 11.754086-8.964981 20.320623-15.738521 36.158755-29.086381 96.722179-77.696498 155.094163-91.442802 54.985214-13.447471 111.763424-15.439689 140.750195-15.439689 14.44358 0 24.803113 0.697276 28.787548 0.996109h4.183658c8.267704 0 15.937743-2.888716 21.715175-8.068482l0.099611-0.099611c5.57821-5.179767 9.164202-13.34786 9.164202-20.918288v-160.672373c0-44.924514-2.490272-88.354864-7.271595-129.593775-19.224903 3.785214-38.748638 5.677821-58.371985 5.677821C593.880156 420.75642 457.214008 284.090272 457.214008 116.046693c0-66.141634 20.918288-128.896498 59.567315-180.992997-46.418677-21.615564-79.290272-27.293385-80.983658-27.492607l-1.394552-0.199221-0.796887-0.199222c-0.796887-0.099611-2.390661-0.099611-3.685603-0.099611-1.195331 0-2.789105 0-3.585993 0.099611l-0.697276 0.199222-1.195331 0.199221c-2.789105 0.498054-28.189883 5.279377-64.846692 20.719067-48.311284 20.320623-93.136187 49.108171-132.980545 85.565758C171.031907 64.049805 126.804669 128 95.128405 203.70428 55.184436 299.231128 34.863813 413.982879 34.863813 544.672374V705.344747c0 7.470817 3.486381 15.140856 9.164203 20.02179l0.498054 0.398444 0.498055 0.398443c6.076265 5.57821 12.949416 8.168093 21.814786 8.168094H70.026459c3.984436-0.298833 14.44358-0.996109 29.684047-0.996109 29.285603 0 86.661479 1.992218 141.746303 15.539299C292.557198 761.027237 352.024903 798.381323 413.385214 856.852918c5.677821 2.789105 11.256031 4.283268 16.236576 4.283269m0 34.863813c-12.550973 0-25.101946-3.884825-36.75642-10.658366-2.888716-1.992218-82.278599-84.171206-159.676265-102.599222-51.299611-12.550973-106.484047-14.543191-133.57821-14.54319-17.431907 0-28.090272 0.996109-28.98677 0.996109H66.7393c-17.431907 0-32.971206-5.777432-45.522179-17.431907C7.76965 740.108949 0 722.776654 0 705.344747v-160.672373c0-592.385992 401.631128-668.787549 418.066926-671.676265 3.884825-0.996109 7.76965-0.996109 11.554864-0.996109 3.884825 0 7.76965 0 11.654475 0.996109 6.175875 0.996109 61.659144 11.455253 130.390661 51.399222-49.307393 48.908949-79.788327 116.644358-79.788327 191.551751 0 149.017899 120.828016 269.845914 269.845915 269.845914 30.680156 0 60.06537-5.179767 87.557976-14.543191 8.367315 52.29572 13.049027 109.870817 13.049028 173.422569V705.344747c0 17.431907-7.76965 34.863813-20.320623 46.418677-12.550973 11.654475-29.086381 17.431907-45.522179 17.431907h-4.880934c-0.996109 0-11.654475-0.996109-28.090272-0.996109-28.090272 0-81.28249 1.992218-132.582101 14.54319-65.842802 15.439689-142.343969 88.056031-164.557199 102.599222C455.819455 892.115175 442.272374 896 429.62179 896zM245.640467 629.441245l0.199222-0.398443 0.398443-0.697277 0.398444-0.697276c14.642802-25.101946 41.736965-40.641245 70.723735-40.641245s56.080934 15.5393 70.723736 40.641245l0.398443 0.697276 0.398444 0.697277 0.199222 0.398443c0.597665-0.199222 1.09572-0.498054 1.693385-0.697276h0.199222c0.597665-0.199222 1.09572-0.498054 1.693385-0.697276l-0.099611-0.498055-0.199222-0.796887-0.199222-0.796887c-7.371206-28.090272 0.796887-58.272374 21.316732-78.792218 15.439689-15.439689 36.059144-24.006226 57.87393-24.006226 7.072374 0 14.045136 0.896498 20.918288 2.689494l0.796887 0.199222 0.796887 0.199222 0.498055 0.099611c0.298833-0.597665 0.498054-1.195331 0.796887-1.792996 0.199222-0.597665 0.498054-1.195331 0.697276-1.792996l-0.498054-0.199222-0.697277-0.398444-0.697276-0.398443c-25.002335-14.642802-40.541634-41.736965-40.541634-70.723736 0-29.086381 15.5393-56.180545 40.641245-70.823346l0.099611-0.099611c0.298833-0.996109 0.597665-1.693385 0.896498-2.689494v-0.099611c-0.199222-0.597665-0.498054-1.09572-0.697276-1.693385l-0.498055 0.199222-0.796887 0.298832-0.796887 0.199222c-6.773541 1.792996-13.845914 2.689494-20.818677 2.689494-21.914397 0-42.434241-8.566537-57.87393-24.006225-20.519844-20.519844-28.687938-50.701946-21.316732-78.792218l0.199222-0.796887 0.298833-0.796888 0.099611-0.398443c-0.597665-0.298833-1.195331-0.498054-1.792996-0.796887-0.597665-0.199222-1.195331-0.498054-1.792997-0.697277l-0.199221 0.498055-0.398444 0.796887-0.398444 0.697276c-14.642802 25.002335-41.736965 40.541634-70.723735 40.541634s-56.080934-15.5393-70.723735-40.641245l-0.398444-0.697276-0.398443-0.796887-0.199222-0.398444c-0.597665 0.199222-1.195331 0.498054-1.693385 0.697277h-0.199222c-0.597665 0.199222-1.09572 0.498054-1.693386 0.697276l0.199222 0.498054 0.298833 0.796888 0.199222 0.796887c7.371206 28.090272-0.796887 58.172763-21.316732 78.692607-15.439689 15.439689-36.059144 24.006226-57.87393 24.006225-7.072374 0-14.045136-0.896498-20.918288-2.689494l-0.796887-0.199222-0.796887-0.298832-0.398444-0.099611c-0.298833 0.597665-0.498054 1.195331-0.796887 1.792996-0.199222 0.597665-0.498054 1.195331-0.697276 1.792996l0.498054 0.199222 0.697277 0.398443 0.697276 0.398444c25.002335 14.642802 40.641245 41.736965 40.641245 70.723735s-15.5393 56.080934-40.641245 70.723736l-0.697276 0.398443-0.697277 0.398444-0.398443 0.199222c0.199222 0.597665 0.498054 1.195331 0.697276 1.693385v0.199222c0.199222 0.597665 0.498054 1.09572 0.697276 1.693385l0.398444-0.099611 0.896498-0.298833 0.896498-0.199221c6.773541-1.792996 13.746304-2.689494 20.719066-2.689495 21.914397 0 42.533852 8.566537 57.87393 24.006226 20.519844 20.519844 28.687938 50.701946 21.316732 78.692607l-0.199222 0.796887-0.199222 0.796887-0.199222 0.498055c0.597665 0.298833 1.195331 0.498054 1.792997 0.796887 0.298833 0.398444 0.896498 0.697276 1.494163 0.896498m4.48249 37.652918c-1.294942 0-2.689494-0.099611-3.984436-0.298832-5.279377-1.693385-10.459144-3.685603-15.63891-5.777432-5.179767-2.19144-10.259922-4.48249-15.140856-6.972763-8.367315-5.976654-12.550973-17.232685-9.363424-27.293385l2.988327-9.662257c4.084047-15.638911 0-32.971206-12.25214-45.223346-9.164202-9.164202-21.217121-13.746304-33.270039-13.746304-3.984436 0-8.068482 0.498054-11.953308 1.494164l-9.662257 3.087938c-2.291051 0.697276-4.582101 1.09572-6.972762 1.095719-7.968872 0-15.738521-3.984436-20.320623-10.459144-2.490272-4.980545-4.781323-10.0607-6.972762-15.140856-2.19144-5.179767-4.084047-10.459144-5.777432-15.63891-1.693385-10.160311 3.28716-21.11751 12.650583-25.898833l8.964981-4.681712c13.945525-8.168093 23.40856-23.308949 23.40856-40.641245S137.463035 418.863813 123.51751 410.69572l-8.964981-4.681712c-9.363424-4.880934-14.343969-15.738521-12.650583-25.898833 1.693385-5.279377 3.685603-10.459144 5.777431-15.63891 2.19144-5.179767 4.48249-10.259922 6.972763-15.240467 4.582101-6.474708 12.451362-10.459144 20.320623-10.459144 2.291051 0 4.681712 0.298833 6.972762 1.09572l9.562646 2.988326c3.984436 0.996109 7.968872 1.593774 12.052918 1.593775 12.052918 0 24.105837-4.582101 33.270039-13.746304 12.25214-12.25214 16.336187-29.584436 12.25214-45.223346l-3.087937-9.662257c-3.087938-10.0607 0.996109-21.316732 9.363424-27.293385 4.980545-2.490272 9.961089-4.781323 15.140856-6.972763s10.459144-4.084047 15.63891-5.777432c1.294942-0.199222 2.589883-0.298833 3.984436-0.298832 8.86537 0 17.730739 4.880934 21.914397 12.949416l4.681712 8.964981c8.168093 13.945525 23.308949 23.40856 40.641245 23.40856s32.473152-9.363424 40.641245-23.30895l4.681712-8.96498c4.283268-8.068482 13.049027-12.949416 21.914397-12.949416 1.294942 0 2.689494 0.099611 3.984436 0.298832 5.279377 1.693385 10.459144 3.685603 15.638911 5.777432 5.179767 2.19144 10.259922 4.48249 15.140856 6.972763 8.367315 5.976654 12.550973 17.232685 9.363424 27.293385l-2.988327 9.562646c-4.084047 15.638911-0.099611 33.070817 12.25214 45.322957 9.164202 9.164202 21.217121 13.746304 33.170428 13.746304 3.984436 0 8.068482-0.498054 11.953307-1.593775l9.662257-3.087937c2.291051-0.697276 4.582101-1.09572 6.873152-1.09572 7.968872 0 15.738521 3.984436 20.420233 10.459144 2.490272 4.880934 4.781323 9.961089 6.972763 15.240467 2.19144 5.179767 4.084047 10.359533 5.777432 15.63891 1.693385 10.160311-3.28716 21.11751-12.650584 25.898833l-8.96498 4.681712c-13.945525 8.168093-23.40856 23.308949-23.30895 40.641245 0 17.332296 9.363424 32.473152 23.30895 40.641245l8.96498 4.681712c9.363424 4.880934 14.343969 15.738521 12.650584 25.898833-1.693385 5.279377-3.685603 10.459144-5.777432 15.63891-2.19144 5.179767-4.48249 10.259922-6.972763 15.140856-4.582101 6.474708-12.451362 10.459144-20.320622 10.459144-2.291051 0-4.681712-0.298833-6.972763-1.095719l-9.662257-2.988327c-3.984436-0.996109-7.968872-1.593774-12.052918-1.593775-12.052918 0-24.105837 4.582101-33.270039 13.746304-12.25214 12.25214-16.336187 29.584436-12.25214 45.223346l2.988327 9.662257c3.187549 10.0607-0.996109 21.316732-9.363424 27.293385-4.980545 2.490272-9.961089 4.781323-15.140856 6.972763s-10.459144 4.084047-15.638911 5.777432c-1.294942 0.199222-2.589883 0.298833-3.984435 0.298832-8.86537 0-17.730739-4.880934-21.914397-12.949416l-4.681712-8.96498c-8.168093-13.945525-23.308949-23.40856-40.641246-23.408561s-32.473152 9.363424-40.641245 23.408561l-4.681712 8.96498c-3.984436 8.068482-12.750195 12.949416-21.715175 12.949416zM778.957198-124.513619c-64.54786 0-125.210895 25.101946-170.832684 70.723736s-70.723735 106.284825-70.723736 170.832685 25.101946 125.210895 70.723736 170.832684 106.284825 70.723735 170.832684 70.723736 125.210895-25.101946 170.832685-70.723736 70.723735-106.284825 70.723736-170.832684-25.101946-125.210895-70.723736-170.832685-106.284825-70.723735-170.832685-70.723736z m0 448.249028c-113.954864 0-206.692607-92.737743-206.692607-206.692607S665.002335-89.649805 778.957198-89.649805 985.649805 3.087938 985.649805 117.042802 892.912062 323.735409 778.957198 323.735409zM729.649805 22.711284c-13.34786 0-26.795331 5.080156-36.955642 15.340078L647.570428 83.175097c-6.773541 6.773541-6.773541 17.83035 0 24.603891 6.773541 6.773541 17.83035 6.773541 24.603891 0l45.123735-45.123735c3.28716-3.28716 7.670039-5.080156 12.351751-5.080156s9.064591 1.792996 12.351751 5.080156l143.638911 143.738521c6.773541 6.773541 17.83035 6.773541 24.603891 0 6.773541-6.773541 6.773541-17.83035 0-24.603891L766.705058 37.951751c-10.259922-10.160311-23.607782-15.240467-37.055253-15.240467zM317.459922 525.845914c41.238911 0 74.708171-33.469261 74.708171-74.708171s-33.469261-74.708171-74.708171-74.708171-74.708171 33.469261-74.708171 74.708171 33.469261 74.708171 74.708171 74.708171m0 34.863814c-60.563424 0-109.571984-49.00856-109.571984-109.571985s49.00856-109.571984 109.571984-109.571984 109.571984 49.00856 109.571985 109.571984-49.108171 109.571984-109.571985 109.571985z"  horiz-adv-x="1024" />

    
    <glyph glyph-name="biaodashi" unicode="&#58935;" d="M72.7 244.2l103.2 568c8.5 67.8 42.2 94.5 101.3 79.9l291.1-52.9-5.6-30.8L349.9 847c-33.6 6.1-53.8-9.5-60.6-46.8L266.9 677l251.9-45.8-6.1-33.6-251.8 45.8-76.3-419.6-111.9 20.4zM535.8 299.1l156.4 162.2-156.4 182.2h111l99.6-122.3L846 643.5h105.3L794.8 467l150.7-167.9c-91.1-3.8-140.4 8.5-147.9 36.9-5.7 7.5-10.4 13.2-14.2 17.1l-42.6 54.1-45.6-51.2c-1.9-3.8-5.7-7.5-11.4-11.4-13.3-34.1-62.6-49.2-148-45.5zM0 3.1h214.8V-128H0zM404.6 83.1h214.8V-128H404.6zM809.2 163.1H1024V-128H809.2z"  horiz-adv-x="1024" />

    
    <glyph glyph-name="shanchu" unicode="&#58936;" d="M330.917684 7.986719999999991c12.398789 0 22.497803 10.099014 22.497803 22.497803l-39.996094 484.852651c0 12.398789-10.099014 22.497803-22.497803 22.497803s-22.497803-10.099014-22.497803-22.497803l39.996094-484.852651c0.09999-12.398789 10.099014-22.497803 22.497803-22.497803zM512 7.986719999999991c12.398789 0 22.497803 10.099014 22.497803 22.497803V515.337174c0 12.398789-10.099014 22.497803-22.497803 22.497803s-22.497803-10.099014-22.497803-22.497803v-484.852651c0-12.398789 10.099014-22.497803 22.497803-22.497803zM693.082316 7.986719999999991c12.398789 0 22.497803 10.099014 22.497803 22.497803l39.996094 484.852651c0 12.398789-10.099014 22.497803-22.497803 22.497803s-22.497803-10.099014-22.497803-22.497803l-39.996094-484.852651c0-12.398789 10.099014-22.497803 22.497803-22.497803zM989.253393 679.521141H746.877063v81.692022c0 35.196563-11.498877 68.493311-32.296846 93.69085C692.882336 881.401426 663.485207 896 631.888292 896H392.111708c-31.596914 0-60.994044-14.598574-82.791915-41.095987-20.797969-25.197539-32.196856-58.494288-32.196856-93.69085v-81.692022H34.746607c-12.398789 0-22.497803-10.099014-22.497803-22.497803s10.099014-22.497803 22.497803-22.497803h72.792891l59.994141-648.036716c0-63.193829 51.394981-114.488819 114.48882-114.488819h459.955082c63.193829 0 114.488819 51.394981 114.48882 114.488819l59.994141 648.136706h72.792891c12.398789 0 22.497803 10.099014 22.497803 22.497803s-10.099014 22.397813-22.497803 22.397813zM322.018553 761.313153c0 49.495166 31.496924 89.791231 70.093155 89.791231h239.776584c38.696221 0 70.093155-40.296065 70.093155-89.791231v-81.692022H322.018553v81.692022z m489.552192-774.724343c0-38.39625-31.196953-69.593204-69.593204-69.593204H282.022459c-38.39625 0-69.593204 31.196953-69.593204 69.593204l-59.994141 648.036715h719.229762l-60.094131-648.036715z"  horiz-adv-x="1024" />

    
    <glyph glyph-name="shuchukongjian" unicode="&#58937;" d="M560.4 896L311.5 876.3c-26.9-1.1-45.2-27.9-36.5-53.5l72.2-238.9c7.3-18 31.2-21.3 40.4-7.9l33.5 49.1c93.7-63.9 214.1-146.1 196.6-382.5 1.4-7.6 8.9-6.2 12-1.7C796.7 591 601 763.8 542.9 803.4l36.5 53.5c12.2 17.8 0.4 38.9-19 39.1zM153.8 799.2C68.9 799.1 0 730.3 0 645.3c0-56.7 30.7-106.2 76.3-132.9-2.5-19-3.8-38.3-3.8-57.9 0-189.9 120-351.9 288.2-414.2 1-84.1 69.5-151.9 153.8-151.9 84.5 0 153 68.1 153.8 152.3C836 103.29999999999995 955.5 265 955.5 454.5c0 19.6-1.3 39-3.8 57.9 45.6 26.7 76.3 76.2 76.3 132.9 0 84.9-68.9 153.8-153.8 153.8-23.8 0-46.3-5.4-66.4-15.1-13.9 12.4-28.6 23.9-43.9 34.5-23.2 15.9-54.7-0.7-54.7-28.9 0-11.6 5.8-22.3 15.3-28.9 12.8-8.8 25-18.4 36.7-28.9l34.8-31.1 42.1 20.2c11.3 5.4 23.5 8.2 36.2 8.2 46.2 0 83.8-37.6 83.8-83.8 0-14.9-3.9-29.5-11.4-42.3-7.3-12.4-17.7-22.9-30.2-30.2l-40.1-23.5 6-46.1c2.1-16.1 3.2-32.5 3.2-48.8 0-77.2-23.5-151.3-67.9-214.1-21.4-30.3-47.2-57.2-76.5-79.9a371.65 371.65 0 0 0-97.3-54.2l-45.1-16.8-0.4-48.1c-0.2-22.2-9-43.1-24.8-58.7-15.8-15.7-36.7-24.3-59-24.3-22.2 0-43.1 8.6-58.9 24.2-15.9 15.7-24.7 36.5-24.9 58.7l-0.6 48.1-45.1 16.7c-35 13-67.9 31.2-97.6 54.1-29.5 22.7-55.3 49.6-76.8 80-44.6 62.9-68.1 137.1-68.1 214.5 0 16.3 1.1 32.7 3.2 48.8l6 46.1-40.1 23.5a84.06 84.06 0 0 0-30.2 30.2C73.9 615.8 70 630.4 70 645.3c0 46.2 37.6 83.8 83.8 83.8"  horiz-adv-x="1028" />

    
    <glyph glyph-name="shurukongjian" unicode="&#58938;" d="M632.398351 239.599042c18.899951 4.499988 25.699933 27.699928 9.799975 42.399889l-47.499877 43.999885C642.498325 377.498682 794.797928 589.598129 553.998555 893.697336c-3.99999 3.69999-11.59997 3.399991-11.29997-4.299989 69.799818-226.599409-29.299924-333.49913-106.399723-416.698913l-43.599886 40.399894c-11.899969 10.999971-34.49991 2.499993-37.599902-16.699956l-17.199955-248.999351c-2.799993-26.89993 20.999945-48.899872 47.499876-43.999885l246.999356 36.199906zM1027.99732 645.297984c0 84.899779-68.89982 153.799599-153.799599 153.799599-23.799938 0-46.299879-5.399986-66.399827-15.099961-29.599923 26.399931-62.699837 48.799873-98.599743 66.599826v-79.899791c18.299952-11.299971 35.699907-24.299937 51.999864-38.899899l34.799909-31.099919 42.099891 20.199948c11.299971 5.399986 23.499939 8.199979 36.199905 8.199978 46.19988 0 83.799781-37.599902 83.799782-83.799781 0-14.899961-3.89999-29.499923-11.39997-42.29989-7.299981-12.399968-17.699954-22.89994-30.199922-30.199921l-40.099895-23.499939 5.999984-46.09988c2.099995-16.099958 3.199992-32.499915 3.199992-48.799873 0-77.199799-23.499939-151.299605-67.899823-214.099441-21.399944-30.299921-47.199877-57.199851-76.499801-79.899792a371.649031 371.649031 0 0 0-97.299746-54.199859l-45.099882-16.799956-0.399999-48.099874c-0.199999-22.199942-8.999977-43.099888-24.799936-58.699847-15.799959-15.699959-36.699904-24.299937-58.999846-24.299937-22.199942 0-43.099888 8.599978-58.899846 24.199937-15.899959 15.699959-24.699936 36.499905-24.899935 58.699847l-0.599999 48.099874-45.099882 16.699957c-34.999909 12.999966-67.899823 31.199919-97.599746 54.099859-29.499923 22.699941-55.299856 49.599871-76.799799 79.999791-44.599884 62.899836-68.099822 137.099643-68.099823 214.499441 0 16.299957 1.099997 32.699915 3.199992 48.799873l5.999984 46.099879-40.099895 23.499939a84.059781 84.059781 0 0 0-30.199922 30.199921C73.899807 615.798061 69.999817 630.398023 69.999817 645.297984c0 46.19988 37.599902 83.799781 83.799782 83.799781 12.699967 0 24.899935-2.699993 36.199906-8.199978l42.09989-20.199948 34.799909 31.099919c14.999961 13.399965 30.999919 25.499934 47.899875 36.199906V848.597454c-34.299911-17.399955-66.099828-39.099898-94.599753-64.499832-20.099948 9.599975-42.599889 15.099961-66.399827 15.09996C68.89982 799.097583 0 730.297762 0 645.297984c0-56.699852 30.69992-106.199723 76.299801-132.899654-2.499993-18.99995-3.79999-38.2999-3.79999-57.899849 0-189.899505 119.999687-351.899082 288.199249-414.19892 0.999997-84.099781 69.499819-151.899604 153.799598-151.899604 84.49978 0 152.999601 68.099822 153.799599 152.299603C835.99782 103.299397 955.497509 264.998975 955.497509 454.498481c0 19.599949-1.299997 38.999898-3.79999 57.899849 45.599881 26.69993 76.299801 76.199801 76.299801 132.899654zM709.198151 770.697657V850.597448"  horiz-adv-x="1028" />

    
    <glyph glyph-name="qingchu" unicode="&#58939;" d="M876.564398 383.850015h30.697002c7.699248 0 15.398496 0 22.997754 2.599746 33.296748 8.999121 46.095498 43.495752 37.096378 104.889757-3.799629 28.197246-24.297627 46.095498-54.99463 46.095498H614.290011v24.297627c0 65.293624-3.799629 130.487257 0 195.780881C616.889757 820.207402 589.992384 877.801777 537.49751 893.100283c-15.398496 3.799629-38.39625 3.799629-51.195 0C458.105263 882.901279 421.008886 856.003906 413.409628 816.307782c-2.599746-12.79875-3.799629-24.297627-3.799629-35.796504v-243.076262H113.938873c-40.896006 0-60.094131-19.198125-60.094131-61.394004v-7.699249c0-72.892882 7.699248-80.59213 80.592129-84.491748 2.599746 0 6.399375-1.299873 10.199004-1.299873-28.197246-145.885753-56.294502-290.471634-86.991504-435.057514-7.699248-35.796504 0-62.693878 30.697002-75.492628h844.417537c29.397129 12.79875 38.39625 38.39625 31.996876 72.892882-30.597012 145.985744-58.794258 290.571624-88.191388 438.957133zM509.300264 841.905283c31.996875 0 52.494874-22.997754 52.494873-61.394005 0-74.192755 1.299873-147.185626 1.299873-221.378381v-21.797871H459.405136V780.511278c0 37.096377 19.198125 60.194122 49.895128 61.394005zM102.439996 435.045015v51.195001h818.820037V435.045015H102.439996z m200.880383-511.750024c8.999121 63.993751 17.898252 133.087003 26.897373 199.580509 1.299873 11.498877 2.599746 21.797871 3.799629 31.996876 1.299873 15.398496-3.799629 28.197246-19.198125 30.697002-17.898252 2.599746-28.197246-6.399375-30.697002-22.997754-6.399375-42.195879-11.498877-83.191876-17.898252-125.387755-3.799629-37.096377-8.999121-75.492628-14.098624-113.888878H103.739869c33.296748 153.585001 66.493506 307.070013 101.090128 460.655014h610.340397c33.296748-153.585001 66.493506-307.070013 101.090127-460.655014h-612.940142z"  horiz-adv-x="1024" />

    
    <glyph glyph-name="shuru" unicode="&#58940;" d="M582.509707 597.711724l142.308157-166.259039 142.308157 166.259039h-83.428906c0.698567 93.707826 73.848553 169.552285 164.063542 169.552285h38.720592V881.529675h-38.720592c-149.892603 0-271.443329-126.540493-271.443329-282.520612v-1.297339h-93.807621zM384.216363 836.122795c19.260501 0 34.92837-15.667869 34.928369-34.92837v-289.40649c0-19.260501-15.667869-34.92837-34.928369-34.92837h-289.406491c-19.260501 0-34.92837 15.667869-34.928369 34.92837v289.40649c0 19.260501 15.667869 34.92837 34.928369 34.92837h289.406491m0 59.877205h-289.406491c-52.392554 0-94.805575-42.41302-94.805574-94.805575v-289.40649c0-52.392554 42.41302-94.805575 94.805574-94.805575h289.406491c52.392554 0 94.805575 42.41302 94.805574 94.805575v289.40649c0 52.392554-42.41302 94.805575-94.805574 94.805575zM386.312065 291.140435c19.260501 0 34.92837-15.667869 34.92837-34.92837v-289.40649c0-19.260501-15.667869-34.92837-34.92837-34.92837H96.905575c-19.260501 0-34.92837 15.667869-34.92837 34.92837V256.212065c0 19.260501 15.667869 34.92837 34.92837 34.92837h289.40649m0 59.877205H96.905575c-52.392554 0-94.805575-42.41302-94.805575-94.805575v-289.40649c0-52.392554 42.41302-94.805575 94.805575-94.805575h289.40649c52.392554 0 94.805575 42.41302 94.805575 94.805575V256.212065c0 52.392554-42.41302 94.805575-94.805575 94.805575zM929.198723 291.140435c19.260501 0 34.92837-15.667869 34.92837-34.92837v-289.40649c0-19.260501-15.667869-34.92837-34.92837-34.92837H639.792233c-19.260501 0-34.92837 15.667869-34.92837 34.92837V256.212065c0 19.260501 15.667869 34.92837 34.92837 34.92837h289.40649m0 59.877205H639.792233c-52.392554 0-94.805575-42.41302-94.805575-94.805575v-289.40649c0-52.392554 42.41302-94.805575 94.805575-94.805575h289.40649c52.392554 0 94.805575 42.41302 94.805575 94.805575V256.212065c0 52.392554-42.41302 94.805575-94.805575 94.805575z"  horiz-adv-x="1026" />

    
    <glyph glyph-name="shuchu" unicode="&#58941;" d="M986.481249 715.270636L844.173092 881.529675 701.864935 715.270636h83.428906c-0.698567-93.707826-73.848553-169.552285-164.063542-169.552285h-38.720592v-114.365461h38.720592c149.892603 0 271.443329 126.540493 271.443329 282.520612v1.297339h93.807621zM384.216363 836.122795c19.260501 0 34.92837-15.667869 34.928369-34.92837v-289.40649c0-19.260501-15.667869-34.92837-34.928369-34.92837h-289.406491c-19.260501 0-34.92837 15.667869-34.928369 34.92837v289.40649c0 19.260501 15.667869 34.92837 34.928369 34.92837h289.406491m0 59.877205h-289.406491c-52.392554 0-94.805575-42.41302-94.805574-94.805575v-289.40649c0-52.392554 42.41302-94.805575 94.805574-94.805575h289.406491c52.392554 0 94.805575 42.41302 94.805574 94.805575v289.40649c0 52.392554-42.41302 94.805575-94.805574 94.805575zM386.312065 291.140435c19.260501 0 34.92837-15.667869 34.92837-34.92837v-289.40649c0-19.260501-15.667869-34.92837-34.92837-34.92837H96.905575c-19.260501 0-34.92837 15.667869-34.92837 34.92837V256.212065c0 19.260501 15.667869 34.92837 34.92837 34.92837h289.40649m0 59.877205H96.905575c-52.392554 0-94.805575-42.41302-94.805575-94.805575v-289.40649c0-52.392554 42.41302-94.805575 94.805575-94.805575h289.40649c52.392554 0 94.805575 42.41302 94.805575 94.805575V256.212065c0 52.392554-42.41302 94.805575-94.805575 94.805575zM929.198723 291.140435c19.260501 0 34.92837-15.667869 34.92837-34.92837v-289.40649c0-19.260501-15.667869-34.92837-34.92837-34.92837H639.792233c-19.260501 0-34.92837 15.667869-34.92837 34.92837V256.212065c0 19.260501 15.667869 34.92837 34.92837 34.92837h289.40649m0 59.877205H639.792233c-52.392554 0-94.805575-42.41302-94.805575-94.805575v-289.40649c0-52.392554 42.41302-94.805575 94.805575-94.805575h289.40649c52.392554 0 94.805575 42.41302 94.805575 94.805575V256.212065c0 52.392554-42.41302 94.805575-94.805575 94.805575z"  horiz-adv-x="1026" />

    
    <glyph glyph-name="xiayige" unicode="&#58942;" d="M513.975-72.5c-9 0-17.9 3.4-24.7 10.3l-479 479c-13.7 13.7-13.7 35.8 0 49.5 13.7 13.7 35.8 13.7 49.5 0L513.975 12l454.3 454.3c13.7 13.7 35.8 13.7 49.5 0 13.7-13.7 13.7-35.8 0-49.5l-479-479c-6.9-6.9-15.8-10.3-24.8-10.3zM513.975 291.5c-9 0-17.9 3.4-24.7 10.3l-479 479c-13.7 13.7-13.7 35.8 0 49.5C23.975 844 46.075 844 59.775 830.3L513.975 376 968.275 830.2c13.7 13.7 35.8 13.7 49.5 0 13.7-13.7 13.7-35.8 0-49.5l-479-479c-6.9-6.8-15.8-10.2-24.8-10.2z"  horiz-adv-x="1028" />

    
    <glyph glyph-name="tianjia" unicode="&#58943;" d="M782 419H547V654c0 19.3-15.7 35-35 35s-35-15.7-35-35v-235H242c-19.3 0-35-15.7-35-35s15.7-35 35-35h235v-235c0-19.3 15.7-35 35-35s35 15.7 35 35V349h235c19.3 0 35 15.7 35 35s-15.7 35-35 35z"  horiz-adv-x="1024" />

    
    <glyph glyph-name="kuaisutianjia" unicode="&#58944;" d="M547 590.4c0 19.3-15.7 35-35 35s-35-15.7-35-35V419H305.6c-19.3 0-35-15.7-35-35s15.7-35 35-35H477v-171.4c0-19.3 15.7-35 35-35s35 15.7 35 35V349h171.4c19.3 0 35 15.7 35 35s-15.7 35-35 35H547V590.4zM1008 456l-95.8 61.8-61.8-95.8 47.7 10.3c1.9-16 2.8-32.2 2.8-48.3 0-225.5-183.5-409-409-409S83 158.5 83 384s183.5 409 409 409c19.9 0 39.8-1.4 59.4-4.3 19.1-2.8 36.9 10.5 39.7 29.6 2.8 19.1-10.5 36.9-29.6 39.7-22.9 3.3-46.3 5-69.5 5-64.6 0-127.4-12.7-186.5-37.7-57-24.1-108.3-58.7-152.2-102.6S74.8 627.5 50.7 570.5C25.7 511.4 13 448.6 13 384s12.7-127.4 37.7-186.5c24.1-57 58.7-108.3 102.6-152.2s95.2-78.5 152.2-102.6c59.1-25 121.8-37.7 186.5-37.7s127.4 12.7 186.5 37.7c57 24.1 108.3 58.7 152.2 102.6s78.5 95.2 102.6 152.2c25 59.1 37.7 121.8 37.7 186.5 0 21.1-1.4 42.3-4.2 63.1l41.2 8.9z"  horiz-adv-x="1024" />

    
    <glyph glyph-name="cud" unicode="&#58945;" d="M157.3 175.4c-48.9 0-87.4 18.6-115.4 55.8C14 268.4 0 319.9 0 385.7c0 65.6 14.5 116.5 43.4 152.6 29 36.2 69.2 54.2 120.7 54.2 30.4 0 56.5-6.1 78.1-18.3 21.6-12.2 39.8-32.3 54.4-60.3L270.8 501c-20.1 44-55.7 66-106.6 66-42.7 0-76-16-100-47.9s-35.9-76.4-35.9-133.4c0-59.1 11.5-104.7 34.5-136.8 23-32.1 55.3-48.2 96.9-48.2 53.5 0 91.1 24.8 112.7 74.5l24.2-11.8c-27.4-58.7-73.9-88-139.3-88zM491.4 175.4c-40.1 0-71.8 12.5-94.9 37.5-23.1 25-34.6 60-34.6 104.9V586.6h27.5V321c0-38.6 9-68.3 26.9-89.2 18-20.9 43.2-31.4 75.6-31.4 36.3 0 63.5 10.2 81.5 30.6 18.1 20.4 27.1 51.6 27.1 93.7V586.6h27.8v-262.7c0-46.8-12-83.3-36-109.3-24-26.2-57.7-39.2-100.9-39.2zM1024 388.6c0-42.2-7.8-79-23.4-110.5-15.6-31.5-37.6-55.5-66-72.1-28.4-16.6-61.1-24.9-98.2-24.9H727.3V586.6H820c65.8 0 116.3-17.1 151.4-51.4 35-34.2 52.6-83.1 52.6-146.6z m-28 0c0 56.4-14.9 99.2-44.8 128.5C921.3 546.3 877 561 818.3 561h-63.5v-354.2h76.7c33.4 0 62.5 7.2 87.3 21.6 24.8 14.4 43.9 35.3 57.2 62.9 13.3 27.4 20 59.9 20 97.3z"  horiz-adv-x="1024" />

    
    <glyph glyph-name="danchuchuang" unicode="&#58946;" d="M989 281.5c-19.3 0-35-15.7-35-35v-232.9c0-39.5-32.1-71.6-71.6-71.6H141.6c-6.7 0-13.2 1-19.4 2.7L486 308.5V123c0-19.3 15.7-35 35-35s35 15.7 35 35V393v1.7c0 0.3 0 0.5-0.1 0.8 0 0.3 0 0.6-0.1 0.9 0 0.3-0.1 0.7-0.1 1 0 0.2-0.1 0.4-0.1 0.7-0.1 0.4-0.1 0.7-0.2 1.1 0 0.2-0.1 0.4-0.1 0.6-0.1 0.4-0.2 0.7-0.2 1.1 0 0.2-0.1 0.4-0.1 0.6-0.1 0.4-0.2 0.7-0.3 1.1-0.1 0.2-0.1 0.4-0.2 0.6-0.1 0.3-0.2 0.6-0.3 1-0.1 0.2-0.1 0.4-0.2 0.7l-0.3 0.9c-0.1 0.3-0.2 0.5-0.3 0.8-0.1 0.3-0.2 0.5-0.3 0.7-0.1 0.3-0.3 0.6-0.4 0.8l-0.3 0.6c-0.2 0.3-0.3 0.6-0.5 0.9-0.1 0.2-0.2 0.4-0.3 0.5-0.2 0.3-0.4 0.6-0.6 1-0.1 0.2-0.2 0.3-0.3 0.5-0.2 0.3-0.4 0.6-0.6 1-0.1 0.2-0.2 0.3-0.3 0.5l-0.6 0.9c-0.1 0.2-0.3 0.3-0.4 0.5-0.2 0.3-0.4 0.5-0.6 0.8-0.2 0.2-0.4 0.4-0.6 0.7-0.2 0.2-0.4 0.4-0.5 0.6-0.4 0.4-0.8 0.8-1.2 1.3-0.4 0.4-0.8 0.8-1.3 1.2-0.2 0.2-0.4 0.4-0.6 0.5-0.2 0.2-0.5 0.4-0.7 0.6-0.3 0.2-0.5 0.4-0.8 0.6-0.2 0.1-0.4 0.3-0.5 0.4l-0.9 0.6c-0.2 0.1-0.3 0.2-0.5 0.3l-0.9 0.6c-0.2 0.1-0.3 0.2-0.5 0.3-0.3 0.2-0.6 0.4-1 0.5-0.2 0.1-0.4 0.2-0.5 0.3-0.3 0.2-0.6 0.3-0.9 0.5l-0.6 0.3c-0.3 0.1-0.6 0.3-0.8 0.4-0.2 0.1-0.5 0.2-0.7 0.3-0.3 0.1-0.5 0.2-0.8 0.3l-0.9 0.3c-0.2 0.1-0.5 0.2-0.7 0.2-0.3 0.1-0.6 0.2-1 0.3-0.2 0.1-0.4 0.1-0.6 0.2-0.3 0.1-0.7 0.2-1.1 0.3-0.2 0-0.4 0.1-0.6 0.1-0.4 0.1-0.7 0.2-1.1 0.2-0.2 0-0.4 0.1-0.6 0.1-0.4 0.1-0.7 0.1-1.1 0.2-0.2 0-0.5 0.1-0.7 0.1-0.3 0-0.7 0.1-1 0.1-0.3 0-0.6 0-0.9 0.1-0.3 0-0.5 0-0.8 0.1H251c-19.3 0-35-15.7-35-35s15.7-35 35-35h185.5L72.7-5.8c-1.7 6.2-2.7 12.7-2.7 19.4V754.4c0 39.5 32.1 71.6 71.6 71.6h232.9c19.3 0 35 15.7 35 35s-15.7 35-35 35H141.6C63.5 896 0 832.5 0 754.4v-740.8C0-64.5 63.5-128 141.6-128h740.8c78.1 0 141.6 63.5 141.6 141.6V246.5c0 19.3-15.7 35-35 35zM899.7 896H748.3C679.7 896 624 840.3 624 771.7v-151.4c0-68.7 55.7-124.3 124.3-124.3h151.4c68.7 0 124.3 55.7 124.3 124.3V771.7C1024 840.3 968.3 896 899.7 896zM954 620.3c0-30-24.4-54.3-54.3-54.3H748.3c-30 0-54.3 24.4-54.3 54.3V771.7c0 30 24.4 54.3 54.3 54.3h151.4c30 0 54.3-24.4 54.3-54.3v-151.4z"  horiz-adv-x="1024" />

    
    <glyph glyph-name="xuanze" unicode="&#58947;" d="M512 826c59.7 0 117.6-11.7 172-34.7 52.6-22.3 99.9-54.1 140.5-94.8 40.6-40.6 72.5-87.9 94.8-140.5 23-54.4 34.7-112.3 34.7-172s-11.7-117.6-34.7-172c-22.3-52.6-54.1-99.9-94.8-140.5-40.6-40.6-87.9-72.5-140.5-94.8-54.4-23-112.3-34.7-172-34.7s-117.6 11.7-172 34.7c-52.6 22.3-99.9 54.1-140.5 94.8-40.6 40.6-72.5 87.9-94.8 140.5C81.7 266.4 70 324.3 70 384s11.7 117.6 34.7 172c22.3 52.6 54.1 99.9 94.8 140.5 40.6 40.6 87.9 72.5 140.5 94.8C394.4 814.3 452.3 826 512 826m0 70C229.2 896 0 666.8 0 384s229.2-512 512-512 512 229.2 512 512S794.8 896 512 896zM512 635c33.9 0 66.8-6.6 97.7-19.7 29.9-12.6 56.7-30.7 79.8-53.8 23.1-23.1 41.2-49.9 53.8-79.8 13.1-30.9 19.7-63.8 19.7-97.7s-6.6-66.8-19.7-97.7c-12.6-29.9-30.7-56.7-53.8-79.8-23.1-23.1-49.9-41.2-79.8-53.8-30.9-13.1-63.8-19.7-97.7-19.7s-66.8 6.6-97.7 19.7c-29.9 12.6-56.7 30.7-79.8 53.8-23.1 23.1-41.2 49.9-53.8 79.8-13.1 30.9-19.7 63.8-19.7 97.7s6.6 66.8 19.7 97.7c12.6 29.9 30.7 56.7 53.8 79.8 23.1 23.1 49.9 41.2 79.8 53.8 30.9 13.1 63.8 19.7 97.7 19.7m0 70c-177.3 0-321-143.7-321-321s143.7-321 321-321 321 143.7 321 321-143.7 321-321 321zM512 479c52.4 0 95-42.6 95-95s-42.6-95-95-95-95 42.6-95 95 42.6 95 95 95m0 70c-91.1 0-165-73.9-165-165s73.9-165 165-165 165 73.9 165 165-73.9 165-165 165z"  horiz-adv-x="1024" />

    
    <glyph glyph-name="shuaxin" unicode="&#58948;" d="M218.39878 803.397657c-47.599734-33.299814-88.899503-74.299585-122.799314-121.799319C27.499846 586.29887-6.099966 469.699521 0.999994 353.400171c1.499992-25.09986 23.099871-44.199753 48.199731-42.699762s44.199753 23.099871 42.699762 48.199731C79.799554 557.999028 211.098821 739.598014 404.197742 790.797728c147.999173 39.199781 303.698304-4.899973 408.897716-112.699371l-70.999603-38.199786 220.698767-136.399239 7.899956 259.298552-74.699583-40.199775C837.595321 788.797739 763.195737 838.69746 679.196206 867.897297 582.896744 901.197111 479.79732 904.99709 380.897872 878.797236c-58.599673-15.499913-113.299367-40.899772-162.499092-75.399579zM53.299702 5.202116l74.699583 40.099776c58.399674-66.19963 132.799258-116.099351 216.798789-145.199189 96.299462-33.299814 199.398886-37.099793 298.298334-10.899939 38.499785 10.199943 75.299579 24.599863 109.999385 43.099759 18.099899 9.599946 35.599801 20.399886 52.499707 32.19982 47.599734 33.299814 88.799504 74.199586 122.699315 121.599321 68.09962 95.199468 101.799431 211.698817 94.79947 327.898168-1.499992 25.09986-23.099871 44.199753-48.199731 42.699762s-44.199753-23.099871-42.699761-48.199731C943.994727 209.800973 812.595461 28.401986 619.796538-22.797728c-147.999173-39.199781-303.698304 4.899973-408.897716 112.699371l70.999603 38.199786L61.199658 264.500668l-7.899956-259.298552z"  horiz-adv-x="1024" />

    
    <glyph glyph-name="shezhi" unicode="&#58949;" d="M984.919179 575.779725c13.197745-34.094173 5.699026-73.78739-18.896771-100.282862-47.291918-51.091269-47.291918-132.377377 0-185.368321 24.595797-26.495472 32.194498-66.188688 18.896771-100.282861-16.997095-43.492567-41.592892-85.085459-69.988039-121.079308-22.696121-28.395147-60.489662-41.592892-94.583836-34.094173s-68.088364 1.899675-98.383187-15.09742c-30.294823-16.997095-51.091269-45.392243-62.389337-77.586741-11.398052-35.893866-41.592892-60.489662-77.586741-66.188688-22.696121-1.899675-47.291918-3.799351-69.988039-3.799351s-47.291918 1.899675-69.988039 5.699026c-35.893866 5.699026-66.188688 30.294823-77.586741 66.188689-20.796446 68.088364-90.784485 107.78158-160.772524 92.68416-35.893866-7.598701-71.887715 5.699026-94.583836 34.094173-28.395147 37.793541-52.990944 77.586741-69.988039 121.079308-13.197745 34.094173-5.699026 73.78739 18.896771 100.282862 47.291918 51.091269 47.291918 132.377377 0 185.368321-24.595797 26.495472-32.094515 66.188688-18.896771 100.282861 16.997095 43.492567 41.592892 85.085459 69.988039 121.079308 22.696121 28.395147 60.489662 41.592892 96.483511 34.094174 34.094173-7.598701 68.088364-1.899675 98.383187 15.097419 30.294823 16.997095 51.091269 45.392243 62.389338 77.586741 11.398052 35.893866 41.592892 60.489662 77.58674 66.188688 45.392243 5.699026 92.68416 5.699026 139.976079 0 35.893866-5.699026 66.188688-30.294823 77.58674-66.188688 9.498377-32.194498 32.194498-60.489662 62.389338-77.586741 30.294823-16.997095 64.289013-22.696121 98.383186-15.097419 35.893866 7.598701 73.78739-5.699026 94.583836-34.094174 26.495472-39.793199 51.091269-79.486416 68.088364-122.978983z m-69.988039-28.395147c-15.09742 35.893866-35.893866 71.887715-60.489663 102.182537-3.799351 5.699026-11.398052 7.598701-18.89677 5.699026-51.091269-11.398052-105.881905-3.799351-151.374131 22.696121-47.291918 26.495472-81.386091 69.988039-96.483511 121.079308-1.899675 7.598701-7.598701 13.197745-15.09742 13.197745-39.693216 5.699026-79.486416 5.699026-119.179632 0-7.598701-1.899675-13.197745-5.699026-15.09742-13.197745C423.11519 747.950301 389.021017 704.357751 341.729099 677.962262c-45.392243-26.495472-100.282862-34.094173-153.173823-22.696121-7.598701 1.899675-15.09742-1.899675-18.89677-5.699026-24.595797-32.194498-45.392243-66.188688-60.489663-102.182537-1.899675-7.598701-1.899675-15.09742 3.799351-20.796446 73.78739-81.386091 73.78739-206.164767 0-287.550858-5.699026-5.699026-5.699026-13.197745-3.799351-18.896771 15.09742-37.793541 35.893866-71.887715 58.589987-102.182537 3.799351-5.699026 13.197745-7.598701 18.896771-7.598701 107.78158 24.595797 215.663144-39.693216 249.657334-143.775429 1.899675-7.598701 7.598701-11.398052 15.09742-13.197745 18.896771-1.899675 39.693216-3.799351 58.589987-3.79935 20.796446 0 39.693216 1.899675 60.489662 3.79935 7.598701 1.899675 13.197745 5.699026 15.09742 13.197745 15.09742 51.091269 49.191593 94.583836 96.483511 121.079308 45.392243 26.495472 100.282862 34.094173 153.173823 22.696121 7.598701-1.899675 15.09742 1.899675 18.896771 5.699026 24.595797 32.194498 45.392243 66.188688 60.489662 102.182537 1.899675 5.699026 1.899675 15.09742-3.799351 20.796446-73.78739 81.386091-73.78739 206.164767 0 287.550858 5.998975 5.699026 5.998975 13.197745 4.0993 20.796446zM504.401299 193.645031c-104.082213 0-189.167672 85.085459-189.167672 189.167672S400.419069 571.980374 504.401299 571.980374s189.167672-85.085459 189.167671-189.167671-83.185784-189.167672-189.167671-189.167672z m0 75.687066c62.389338 0 113.480606 51.091269 113.480606 113.480606s-51.091269 113.480606-113.480606 113.480606-113.480606-51.091269-113.480607-113.480606S442.011961 269.332097 504.401299 269.332097z"  horiz-adv-x="1024" />

    
    <glyph glyph-name="yiyoushuju" unicode="&#58950;" d="M575.5 113.2h414.7M990.2 79.3H575.5c-18.7 0-33.8 15.1-33.8 33.8 0 18.7 15.1 33.8 33.8 33.8h414.7c18.7 0 33.8-15.1 33.8-33.8 0-18.6-15.1-33.8-33.8-33.8zM782.8 320.5v-414.7M782.8-128c-18.7 0-33.8 15.1-33.8 33.8V320.5c0 18.7 15.1 33.8 33.8 33.8 18.7 0 33.8-15.1 33.8-33.8v-414.7c0.1-18.7-15.1-33.8-33.8-33.8zM0.5 775.8a494.8 119.7 0 1 1 989.6 0 494.8 119.7 0 1 1-989.6 0ZM495.3 655.5c-132.2 0-256.5 12.5-350 35.1C51.6 713.3 0 743.5 0 775.8s51.6 62.5 145.3 85.1C238.8 883.5 363.1 896 495.3 896s256.5-12.5 350-35.1C939 838.2 990.6 808 990.6 775.8s-51.6-62.5-145.3-85.1c-93.5-22.7-217.8-35.2-350-35.2z m0 239.5C222.7 895 1 841.5 1 775.8 1 710 222.7 656.5 495.3 656.5S989.7 710 989.7 775.8C989.7 841.5 767.9 895 495.3 895zM885 594.9c-90.6-25.7-231.5-42.3-389.7-42.3s-299.1 16.5-389.7 42.3C39.8 576.2 0.5 552.6 0.5 527c0-60.9 221.5-110.2 494.8-110.2S990.2 466.1 990.2 527c0 25.6-39.3 49.2-105.2 67.9zM495.3 416.2c-132.2 0-256.5 11.5-350 32.3C51.6 469.4 0 497.3 0 527c0 25.1 36.5 48.8 105.5 68.4h0.2c94.5-26.9 236.5-42.3 389.6-42.3s295 15.4 389.6 42.3h0.2c69-19.6 105.5-43.3 105.5-68.4 0-29.7-51.6-57.5-145.3-78.4-93.5-20.9-217.8-32.4-350-32.4zM105.6 594.4c-33.3-9.5-59.2-20-77-31.3C10.3 551.5 1 539.3 1 527c0-60.5 221.8-109.8 494.4-109.8S989.7 466.4 989.7 527c0 12.4-9.3 24.5-27.7 36.2-17.8 11.3-43.7 21.8-77 31.3-94.6-26.9-236.6-42.3-389.7-42.3s-295.1 15.4-389.7 42.2zM523.3 297.4c-9.3-0.1-18.6-0.2-28-0.2-158.2 0-299.1 16.5-389.7 42.3C39.8 320.7 0.5 297.2 0.5 271.5c0-60.9 221.5-110.2 494.8-110.2 6.8 0 13.6 0 20.3 0.1M495.3 160.8c-132.2 0-256.5 11.5-350 32.3C51.6 214 0 241.8 0 271.5c0 25.1 36.5 48.8 105.5 68.4h0.2c94.5-26.9 236.5-42.3 389.6-42.3 9.3 0 18.7 0.1 28 0.2v-1c-9.3-0.1-18.7-0.2-28-0.2-153.1 0-295.1 15.4-389.7 42.3-33.3-9.5-59.2-20-77-31.3C10.3 296 1 283.9 1 271.5 1 211 222.7 161.8 495.3 161.8c6.8 0 13.6 0 20.3 0.1v-1c-6.7-0.1-13.5-0.1-20.3-0.1zM513.7 41.8c-6.1 0-12.2-0.1-18.4-0.1-158.2 0-299.1 16.5-389.7 42.3C39.8 65.3 0.5 41.7 0.5 16.1c0-60.9 221.5-110.2 494.8-110.2 8.1 0 16.2 0 24.2 0.1M495.3-94.7c-132.2 0-256.5 11.5-350 32.3C51.6-41.5 0-13.6 0 16.1c0 25.1 36.5 48.8 105.5 68.4h0.2c94.5-26.9 236.5-42.3 389.6-42.3 6 0 12.2 0 18.3 0.1v-1c-6.1 0-12.3-0.1-18.4-0.1-153.1 0-295.1 15.4-389.7 42.3-33.3-9.5-59.2-20-77-31.3C10.3 40.6 1 28.4 1 16.1c0-60.5 221.8-109.8 494.4-109.8 8 0 16.2 0 24.2 0.1v-1c-8.1 0-16.2-0.1-24.3-0.1z"  horiz-adv-x="1024" />

    
    <glyph glyph-name="xiaoyanbaocun1" unicode="&#58951;" d="M780.7-124.5c-64.5 0-125.2 25.1-170.8 70.7-45.6 45.6-70.7 106.3-70.7 170.8s25.1 125.2 70.7 170.8c45.6 45.6 106.3 70.7 170.8 70.7s125.2-25.1 170.8-70.7 70.7-106.3 70.7-170.8-25.1-125.2-70.7-170.8c-45.6-45.6-106.3-70.7-170.8-70.7z m0 448.2C666.7 323.7 574 231 574 117s92.7-206.7 206.7-206.7S987.4 3.1 987.4 117s-92.7 206.7-206.7 206.7zM731.4 22.7c-13.3 0-26.8 5.1-37 15.3l-45.1 45.1c-6.8 6.8-6.8 17.8 0 24.6 6.8 6.8 17.8 6.8 24.6 0l45.1-45.1c3.3-3.3 7.7-5.1 12.4-5.1s9.1 1.8 12.4 5.1l143.6 143.7c6.8 6.8 17.8 6.8 24.6 0 6.8-6.8 6.8-17.8 0-24.6L768.4 38c-10.2-10.2-23.6-15.3-37-15.3zM487 519.4c4.7-12.1 2-26.2-6.7-35.6-16.8-18.1-16.8-47 0-65.8 8.7-9.4 11.4-23.5 6.7-35.6-6-15.5-14.8-30.2-24.9-43-8.1-10.1-21.5-14.8-33.6-12.1-12.1 2.7-24.2 0.7-34.9-5.4-10.8-6-18.1-16.1-22.2-27.5-4-12.8-14.8-21.5-27.5-23.5-8.1-0.7-16.8-1.3-24.9-1.3s-16.8 0.7-24.9 2c-12.8 2-23.5 10.8-27.5 23.5-7.4 24.2-32.3 38.3-57.1 32.9-12.8-2.7-25.5 2-33.6 12.1-10.1 13.4-18.8 27.5-24.9 43-4.7 12.1-2 26.2 6.7 35.6 16.8 18.1 16.8 47 0 65.8-8.7 9.4-11.4 23.5-6.7 35.6 6 15.5 14.8 30.2 24.9 43 8.1 10.1 21.5 14.8 34.3 12.1 12.1-2.7 24.2-0.7 34.9 5.4 10.8 6 18.1 16.1 22.2 27.5 4 12.8 14.8 21.5 27.5 23.5 16.1 2 32.9 2 49.7 0 12.8-2 23.5-10.8 27.5-23.5 3.4-11.4 11.4-21.5 22.2-27.5 10.8-6 22.8-8.1 34.9-5.4 12.8 2.7 26.2-2 33.6-12.1 9.6-14.1 18.3-28.2 24.3-43.7z m-24.8-10.1c-5.4 12.8-12.8 25.5-21.5 36.3-1.3 2-4 2.7-6.7 2-18.1-4-37.6-1.3-53.8 8.1-16.8 9.4-28.9 24.9-34.3 43-0.7 2.7-2.7 4.7-5.4 4.7-14.1 2-28.2 2-42.3 0-2.7-0.7-4.7-2-5.4-4.7-5.4-18.1-17.5-33.6-34.3-43-16.1-9.4-35.6-12.1-54.4-8.1-2.7 0.7-5.4-0.7-6.7-2-8.7-11.4-16.1-23.5-21.5-36.3-0.7-2.7-0.7-5.4 1.3-7.4 26.2-28.9 26.2-73.2 0-102.1-2-2-2-4.7-1.3-6.7 5.4-13.4 12.8-25.5 20.8-36.3 1.3-2 4.7-2.7 6.7-2.7 38.3 8.7 76.6-14.1 88.7-51.1 0.7-2.7 2.7-4 5.4-4.7 6.7-0.7 14.1-1.3 20.8-1.3 7.4 0 14.1 0.7 21.5 1.3 2.7 0.7 4.7 2 5.4 4.7 5.4 18.1 17.5 33.6 34.3 43 16.1 9.4 35.6 12.1 54.4 8.1 2.7-0.7 5.4 0.7 6.7 2 8.7 11.4 16.1 23.5 21.5 36.3 0.7 2 0.7 5.4-1.3 7.4-26.2 28.9-26.2 73.2 0 102.1 2 2 2 4.7 1.4 7.4zM316.4 383.7c-37 0-67.2 30.2-67.2 67.2s30.2 67.2 67.2 67.2 67.2-30.2 67.2-67.2-29.6-67.2-67.2-67.2z m0 26.9c22.2 0 40.3 18.1 40.3 40.3 0 22.2-18.1 40.3-40.3 40.3-22.2 0-40.3-18.1-40.3-40.3 0-22.2 18.1-40.3 40.3-40.3zM510.3-92.7l-0.6 0.8c-1.9 2.4-3.5 4.6-5.1 6.8l-0.3 0.4c-1.9 2.5-3.6 5.1-5.3 7.5-39.6 57.2-60.5 124.4-60.5 194.2 0 46.2 9.1 91 26.9 133.2 17.2 40.8 41.9 77.4 73.3 108.8 31.4 31.4 68 56.1 108.8 73.3 42.2 17.9 87 26.9 133.2 26.9 15.3 0 30.9-1 46.2-3.1 2.9-0.4 5.9-0.8 9-1.3l0.8-0.1c2.8-0.5 5.5-0.9 8.2-1.5l0.8-0.2c2.8-0.5 5.5-1.1 8.2-1.7l0.5-0.1-7.5-34.2-0.5 0.1c-2.4 0.5-4.9 1-7.4 1.5l-0.7 0.1c-2.4 0.5-4.9 0.9-7.3 1.3l-0.7 0.1c-2.7 0.4-5.4 0.8-8 1.2-13.8 1.9-27.7 2.8-41.5 2.8-169.4 0-307.2-137.8-307.2-307.2 0-62.7 18.8-123 54.3-174.4 1.5-2.2 3.1-4.4 4.8-6.7l0.3-0.3c1.4-2 2.9-4 4.6-6.1l0.6-0.7-27.9-21.4zM542-76.1c-1.6 2-3.3 4.1-4.9 6.1-0.2 0.3-0.4 0.5-0.6 0.8-1.7 2.1-3.3 4.3-4.9 6.5-0.2 0.3-0.5 0.7-0.7 1-0.5 0.6-0.9 1.2-1.3 1.8-1.8 2.7-5.3 3.7-8.3 2.4-41.9-18.7-82.3-34.7-83.8-34.9l-1.4-0.2-0.8-0.2c-0.8-0.1-2.4-0.1-3.7-0.1-1.2 0-2.8 0-3.6 0.1l-0.7 0.2-1.2 0.2c-2.8 0.5-28.2 5.3-64.8 20.7-48.3 20.3-93.1 49.1-133 85.6C172.8 64 128.5 128 96.9 203.7 57 299.2 36.6 414 36.6 544.7V705.3c0 7.5 3.5 15.1 9.2 20l0.5 0.4 0.5 0.4c6.1 5.6 12.9 8.2 21.8 8.2H71.8c4-0.3 14.4-1 29.7-1 29.3 0 86.7 2 141.7 15.5 51.1 12.2 110.6 49.5 171.9 108 5.7 2.8 11.3 4.3 16.2 4.3 6 0 12.9-2 17.8-5.1 3.8-2.5 11.8-9 20.3-15.7 36.2-29.1 96.7-77.7 155.1-91.4 55-13.4 111.8-15.4 140.8-15.4 14.4 0 24.8 0.7 28.8 1h4.2c8.3 0 15.9-2.9 21.7-8.1l0.1-0.1c5.6-5.2 9.2-13.3 9.2-20.9v-160.7c0-36.4-10.6-87.8-13.8-121.9 2.8-0.4 5.7-0.8 8.5-1.3 0.2 0 0.5-0.1 0.7-0.1 2.6-0.4 5.2-0.9 7.8-1.4l1.5-0.3c2.3-0.4 4.6-0.9 6.9-1.4 0.2 0 0.4-0.1 0.7-0.1 2.8-0.6 5.5-1.2 8.2-1.9 5.2 36 14.2 88.6 14.2 128.4V705.3c0 17.4-7.8 34.9-20.3 46.4-12.6 11.7-29.1 17.4-45.5 17.4h-4.9c-1 0-11.7-1-28.1-1-28.1 0-81.3 2-132.6 14.5-65.8 15.6-142.3 88.2-164.5 102.7C457.6 892.1 444 896 431.4 896c-12.6 0-25.1-3.9-36.8-10.7-2.9-2-82.3-84.2-159.7-102.6-51.3-12.6-106.5-14.5-133.6-14.5-17.4 0-28.1 1-29 1h-3.9c-17.4 0-33-5.8-45.5-17.4-13.4-11.7-21.2-29-21.2-46.4v-160.7c0-592.4 401.6-668.8 418.1-671.7 3.9-1 7.8-1 11.6-1 3.9 0 7.8 0 11.7 1 4.7 0.8 49.9 17.8 97.3 39.7 4 1.8 5.1 6.9 2.4 10.3l-0.1 0.1c-0.3 0.2-0.5 0.5-0.7 0.8zM850.1 434.3c-0.8 0.2-1.6 0.3-2.3 0.5-1.8 0.4-3.7 0.8-5.5 1.1 2.6-0.5 5.2-1 7.8-1.6zM524.1-82c1.6-2.1 3.2-4.1 4.9-6.1-1.6 2-3.3 4-4.9 6.1zM513.4-67.3c1.7-2.4 3.3-4.8 5.1-7.1-1.8 2.3-3.5 4.7-5.1 7.1zM824.5 438.8c2.8-0.4 5.7-0.8 8.5-1.3-2.8 0.5-5.6 0.9-8.5 1.3zM518.7-74.8z"  horiz-adv-x="1024" />

    
    <glyph glyph-name="zhuanhuantuxing" unicode="&#58952;" d="M753.9 248.10000000000002l0.7-9.6-1.8-9.5c-6-32.7-30.5-58.2-62.4-65-5.7-1.2-11.4-1.8-17-1.8-26.7 0-52.3 13.2-68.1 36.2l-3.4 4.9-2.6 5.4c-12.3 25.8-23.1 51.4-32.3 76.7L428.5 146.79999999999995 320 255.29999999999995c-12.8 12.8-33.7 12.8-46.5 0L66 47.799999999999955V596.4h469.9c4.7 22.9 11.2 45.2 19.4 66.9H65.1c-36.4-0.6-65.6-30.5-65-66.9V-63c0.6-36 30-65 66-65h659.4c36.2 0 65.4 29 66 65V445.7c-28.2-46-44.3-107.5-37.6-197.6zM263.8 431.5m-98.9 0a98.9 98.9 0 1 1 197.8 0 98.9 98.9 0 1 1-197.8 0ZM736.4 896c-19.4-0.2-31.2-21.3-19-39.1l36.5-53.5c-58.1-39.6-253.8-212.4-86.8-562.5 3.1-4.5 10.6-5.9 12 1.7C661.6 479 782 561.2 875.7 625.1l33.5-49.1c9.2-13.4 33.1-10.1 40.4 7.9l72.2 238.9c8.7 25.6-9.6 52.4-36.5 53.5L736.4 896z"  horiz-adv-x="1024" />

    
    <glyph glyph-name="tianjiashuju" unicode="&#58953;" d="M1023.2 738.7c0.1 1.6 0.2 3.1 0.2 4.7 0 26.1-16.6 49.7-49.3 70.2-26.5 16.6-63.9 31.4-111 43.8C768.9 882.3 644.3 896 512 896S255.1 882.3 161 857.4C113.9 844.9 76.6 830.2 50 813.6 17.3 793 0.7 769.4 0.7 743.4v-2.3H0.6v-236.6c0-1.5-0.1-2.9 0-4.4v-477.5h0.2c0.9-25.1 17.4-48 49.3-68 26.5-16.6 63.9-31.4 111-43.8 89.7-23.7 207.1-37.3 332.5-38.5V-81h-0.1c-121.3 1.2-234.5 14.2-320.4 37-41.9 11.2-75.7 24.3-98 38.3-17.4 10.8-27.4 21.8-27.4 30.3h-0.1V195.7c0.8-0.5 1.6-1.1 2.5-1.6 26.5-16.6 63.9-31.4 111-43.8 89.5-23.7 207-37.3 332.5-38.5v47C372.3 160 259 173 173.2 195.7c-41.9 11.2-75.9 24.3-98 38.3-17.4 10.9-27.4 22-27.4 30.4h-0.1c0 0.2 0.1 1.1 0.1 1.8v0.4h-0.1v167c20.9-13.4 42.6-22.3 64.2-30.1 21.7-7.7 43.7-13.9 65.6-19.1 22.1-5.3 44.1-9.6 66.2-13.4 44.3-7.5 88.7-12.6 133.2-15.9 44.5-3.3 89-4.9 133.5-4.9s89 1.4 133.5 4.7 88.9 8.2 133.2 15.6c22.2 3.8 44.3 8.1 66.2 13.3 22.1 5.2 44 11.3 65.8 18.8 10.9 3.8 21.7 8 32.5 12.8 10.8 4.7 21.5 10.2 32.1 16.7 0.9 0.6 1.9 1.2 2.8 1.8v-111.1h47V738.7h-0.3z m-46.6-238.8h-0.2c-0.2-1.2-0.6-2.5-1.3-4.1-1.1-2.5-3.1-5.2-5.5-8-4.9-5.8-12.4-11.3-20.4-16.3-4.1-2.5-8.3-4.8-12.8-7.2-4.5-2.2-8.9-4.5-13.6-6.5-9.3-4.1-19-7.9-28.9-11.3-19.7-6.9-40.3-12.6-61.1-17.5-20.8-4.9-41.9-9-63.2-12.6-42.5-7-85.6-11.9-128.8-15-43.2-3.2-86.7-4.6-130.1-4.6-43.4 0.1-86.9 1.6-130.1 4.8-43.2 3.3-86.3 8.2-128.8 15.4-21.3 3.6-42.3 7.9-63.1 12.8-20.8 4.9-41.2 10.7-60.9 17.7-9.9 3.5-19.5 7.3-28.8 11.5-4.6 2.2-9.2 4.3-13.5 6.7-2.2 1.1-4.3 2.3-6.5 3.5-2 1.3-4.1 2.5-6.1 3.8-8 5-15 10.8-19.6 16.4-2.3 2.7-3.9 5.4-4.8 7.6-0.8 2.2-0.9 3.9-0.9 5.6V674.7c0.8-0.5 1.6-1.1 2.5-1.6 26.5-16.6 63.9-31.4 111-43.8 94.1-24.9 218.6-38.6 351-38.6s256.9 13.7 351 38.6c47.1 12.4 84.4 27.1 111 43.8 0.8 0.5 1.7 1.1 2.5 1.6v-174.8z m-27.4 212.9c-22.3-14-56.2-27.1-98.2-38.3-90.3-24-210.6-37.1-339-37.1s-248.7 13.3-339 37.1c-42 11.2-75.9 24.3-98.2 38.3-17.4 10.9-27.4 22-27.4 30.4 0.1 8.5 10 19.5 27.4 30.5C97.1 787.7 131 800.8 173 812c90.3 23.9 210.6 37 339 37s248.7-13.2 339-37.1c42-11.2 75.9-24.3 98.2-38.3 17.4-10.9 27.4-22 27.4-30.4 0-8.5-10-19.5-27.4-30.4zM970 133.5H797.5V306c0 9.7-7.8 17.5-17.5 17.5s-17.5-7.8-17.5-17.5v-172.5H590c-9.7 0-17.5-7.8-17.5-17.5s7.8-17.5 17.5-17.5h172.5V-74c0-9.7 7.8-17.5 17.5-17.5s17.5 7.8 17.5 17.5V98.5H970c9.7 0 17.5 7.8 17.5 17.5s-7.8 17.5-17.5 17.5z"  horiz-adv-x="1024" />

    
    <glyph glyph-name="bianji" unicode="&#58954;" d="M730.852918 77.995331c15.738521 0 28.488716-13.34786 28.488716-29.883269s-12.750195-29.883268-28.488716-29.883268H226.921401c-15.738521 0-28.488716 13.34786-28.488716 29.883268s12.750195 29.883268 28.488716 29.883269h503.931517z m-505.226459 40.342412l68.432685 191.850584 111.564202-117.142413-179.996887-74.708171z m202.807782 96.82179L315.973541 333.198444l305.905058 318.456031 112.560312-118.038911-306.00467-318.456031z m326.922957 342.960311l-112.560311 118.038911 56.280156 59.069261c18.627237 19.523735 48.809339 19.523735 67.536187 0l45.024124-47.215565c18.627237-19.523735 18.627237-51.299611 0-70.823346l-56.280156-59.069261zM989.143969-128H34.871595c-19.224903 0-34.863813 15.638911-34.863813 34.863813V861.136187C0.007782 880.361089 15.646693 896 34.871595 896h631.533074c19.224903 0 34.863813-15.638911 34.863813-34.863813s-15.638911-34.863813-34.863813-34.863813H69.735409v-884.544748h884.544747V538.396887c0 19.224903 15.638911 34.863813 34.863813 34.863813s34.863813-15.638911 34.863813-34.863813v-631.533074c0-19.224903-15.638911-34.863813-34.863813-34.863813z"  horiz-adv-x="1028" />

    
    <glyph glyph-name="zuoduiqi" unicode="&#58955;" d="M80 872h64v-976H80zM198 669h448v-190H198zM198 289h746v-190H198z"  horiz-adv-x="1024" />

    
    <glyph glyph-name="youduiqi" unicode="&#58956;" d="M944-104h-64V872h64zM826 479H378V669h448zM826 99H80V289h746z"  horiz-adv-x="1024" />

    
    <glyph glyph-name="xiayi" unicode="&#58957;" d="M876.2 306.3L536.7-33.1c-6.6-6.6-15.5-10.3-24.7-10.3-9.3 0-18.2 3.7-24.7 10.3L147.8 306.3c-13.7 13.7-13.7 35.8 0 49.5 13.7 13.7 35.8 13.7 49.5 0L477 76.1V776.4c0 19.3 15.7 35 35 35s35-15.7 35-35v-700.2l279.7 279.7c6.8 6.8 15.8 10.3 24.7 10.3s17.9-3.4 24.7-10.3c13.7-13.8 13.7-35.9 0.1-49.6z"  horiz-adv-x="1024" />

    
    <glyph glyph-name="shuipingjuzhongduiqi" unicode="&#58958;" d="M885 289H544V479h192V669H544V872h-64v-203H288v-190h192v-190H139v-190h341v-203h64V99h341z"  horiz-adv-x="1024" />

    
    <glyph glyph-name="shangyi" unicode="&#58959;" d="M876.2 461.7L536.7 801.1c-6.6 6.6-15.5 10.3-24.7 10.3-9.3 0-18.2-3.7-24.7-10.3L147.8 461.7c-13.7-13.7-13.7-35.8 0-49.5 13.7-13.7 35.8-13.7 49.5 0L477 691.9v-700.2c0-19.3 15.7-35 35-35s35 15.7 35 35V691.9l279.7-279.7c6.8-6.8 15.8-10.3 24.7-10.3s17.9 3.4 24.7 10.3c13.7 13.7 13.7 35.8 0.1 49.5z"  horiz-adv-x="1024" />

    
    <glyph glyph-name="xiajicaozuo" unicode="&#58960;" d="M980.4 349.9c10.9 11.4 10.9 29.9 0 41.3l-26.3 27.5c-10.9 11.4-28.5 11.4-39.4 0l-32.8-34.5 65.7-68.8 32.8 34.5zM935.3 301.1L869.7 370 691.3 184.2l65.5-68.8zM743.5 102.5l-65 68.3-39.9-111.9zM982 47.5c-19.3 0-35-15.7-35-35v-40.9H379V242.3h191c19.3 0 35 15.7 35 35s-15.7 35-35 35H344c-19.3 0-35-15.7-35-35V142H189V525.7h427.8c32 0 58 26 58 58V808.5c0 32-25.9 58-58 58H65c-32 0-58-26-58-58v-224.8c0-32 26-58 58-58h54V111c0-15.3 9.8-28.3 23.5-33 5.6-3.8 12.3-6 19.5-6h147v-135.4c0-19.3 15.7-35 35-35h638c19.3 0 35 15.7 35 35v75.9c0 19.3-15.7 35-35 35zM77 796.5h527.8v-200.8H77V796.5z"  horiz-adv-x="1024" />

    
    <glyph glyph-name="chaxunfuwu" unicode="&#58961;" d="M27.903952 363.19599s-0.999992-0.999992-2.099983-0.999992c-29.099762-25.999788-31.199745-69.699431-6.199949-98.899193l237.298063-271.597782c32.299736-36.399703 78.099362-57.199533 125.898972-57.199533h355.897094l62.399491-62.399491 220.598199 215.398242-158.098709 157.098717C797.997665 309.096432 701.198455 330.996253 613.799169 300.796499l-34.29972-12.499898H363.001216c-37.499694-0.999992-66.599456-32.299736-65.599464-69.699431 3.099975-37.499694 33.299728-66.599456 70.799422-65.599464h127.998955c12.499898-2.099983 21.899821-11.399907 22.899813-22.899813 2.099983-14.599881-8.299932-27.099779-22.899813-29.099763h-127.998955c-65.599464 0-119.699023 50.999584-122.798997 116.599049v2.099982L126.703146 353.896066c-24.899797 29.099762-68.699439 33.299728-98.799194 9.299924zM234.502266 597.09408c-14.599881 43.499645-11.399907 90.199264 8.999926 131.298928 20.499833 41.199664 55.699545 71.899413 99.19919 86.499294s90.199264 11.399907 131.298928-8.999926c41.199664-20.499833 71.899413-55.699545 86.499294-99.19919 14.599881-43.499645 11.399907-90.199264-8.999926-131.298929s-55.699545-71.899413-99.199191-86.499293-90.199264-11.399907-131.298928 8.999926c-41.099664 20.499833-71.899413 55.699545-86.499293 99.19919m-68.199444-22.899813c42.999649-127.798957 181.29852-196.498396 308.997478-153.498747s196.498396 181.29852 153.498746 308.997478-181.198521 196.498396-308.997477 153.498747-196.498396-181.29852-153.498747-308.997478zM866.797103 418.895535c-8.799928-17.799855-30.399752-25.099795-48.199606-16.199868L598.199296 512.194773c-17.799855 8.799928-25.099795 30.399752-16.199867 48.199607 8.799928 17.799855 30.399752 25.099795 48.199606 16.199868l220.398201-109.499106c8.899927-4.499963 15.099877-12.099901 18.099852-20.799831s2.49998-18.499849-1.899985-27.399776z"  horiz-adv-x="1024" />

    
    <glyph glyph-name="fuzhi" unicode="&#58962;" d="M241.6 40.7h387.9c12.5 0 22.7 10.1 22.7 22.6 0 12.5-10.2 22.6-22.7 22.6H241.6c-12.5 0-22.7-10.2-22.7-22.6 0-12.5 10.1-22.6 22.7-22.6-0.1 0 0 0 0 0z m0 491.8h387.9c12.5 0 22.7 10.1 22.7 22.6 0 12.6-10.2 22.7-22.7 22.7H241.6c-12.5 0.4-23-9.5-23.3-22-0.4-12.5 9.5-23 22-23.3h1.3z m0-163.9h387.9c12.5 0 22.7 10.1 22.7 22.6 0 12.6-10.2 22.7-22.7 22.7H241.6c-12.5 0-22.6-10.1-22.6-22.6 0-12.6 10.1-22.7 22.6-22.7z m0-164h387.9c12.5 0 22.7 10.2 22.7 22.6 0 12.5-10.2 22.6-22.7 22.6H241.6c-12.5 0-22.7-10-22.7-22.6 0-12.5 10.2-22.6 22.7-22.6zM910.8 896H287.1c-29.5 0-53.4-23.9-53.5-53.4v-93H93.5c-18.6 0-33.7-15.1-33.7-33.7v-810c0-18.6 15.2-33.8 33.7-33.8h684c18.6 0 33.7 15.2 33.7 33.8V50.4h99.5c29.5 0.1 53.3 23.9 53.4 53.4V842.6C964.2 872.1 940.3 896 910.8 896zM766-82.7H105v787h661v-787z m152.9 186.5c-0.1-4.5-3.7-8.1-8.1-8.2h-99.5V715.8c0 18.6-15.1 33.7-33.7 33.7H278.9v93c0 4.4 3.8 8.1 8.2 8.1h623.7c4.3 0 8.1-3.7 8.1-8.1v-738.7z"  horiz-adv-x="1024" />

    
    <glyph glyph-name="shuru1" unicode="&#58963;" d="M582.509707 597.711724l142.308157-166.259039 142.308157 166.259039h-83.428906c0.698567 93.707826 73.848553 169.552285 164.063542 169.552285h38.720592V881.529675h-38.720592c-149.892603 0-271.443329-126.540493-271.443329-282.520612v-1.297339h-93.807621zM384.216363 836.122795c19.260501 0 34.92837-15.667869 34.928369-34.92837v-289.40649c0-19.260501-15.667869-34.92837-34.928369-34.92837h-289.406491c-19.260501 0-34.92837 15.667869-34.928369 34.92837v289.40649c0 19.260501 15.667869 34.92837 34.928369 34.92837h289.406491m0 59.877205h-289.406491c-52.392554 0-94.805575-42.41302-94.805574-94.805575v-289.40649c0-52.392554 42.41302-94.805575 94.805574-94.805575h289.406491c52.392554 0 94.805575 42.41302 94.805574 94.805575v289.40649c0 52.392554-42.41302 94.805575-94.805574 94.805575zM386.312065 291.140435c19.260501 0 34.92837-15.667869 34.92837-34.92837v-289.40649c0-19.260501-15.667869-34.92837-34.92837-34.92837H96.905575c-19.260501 0-34.92837 15.667869-34.92837 34.92837V256.212065c0 19.260501 15.667869 34.92837 34.92837 34.92837h289.40649m0 59.877205H96.905575c-52.392554 0-94.805575-42.41302-94.805575-94.805575v-289.40649c0-52.392554 42.41302-94.805575 94.805575-94.805575h289.40649c52.392554 0 94.805575 42.41302 94.805575 94.805575V256.212065c0 52.392554-42.41302 94.805575-94.805575 94.805575zM929.198723 291.140435c19.260501 0 34.92837-15.667869 34.92837-34.92837v-289.40649c0-19.260501-15.667869-34.92837-34.92837-34.92837H639.792233c-19.260501 0-34.92837 15.667869-34.92837 34.92837V256.212065c0 19.260501 15.667869 34.92837 34.92837 34.92837h289.40649m0 59.877205H639.792233c-52.392554 0-94.805575-42.41302-94.805575-94.805575v-289.40649c0-52.392554 42.41302-94.805575 94.805575-94.805575h289.40649c52.392554 0 94.805575 42.41302 94.805575 94.805575V256.212065c0 52.392554-42.41302 94.805575-94.805575 94.805575z"  horiz-adv-x="1026" />

    
    <glyph glyph-name="jihe" unicode="&#58964;" d="M384.216363 836.122795c19.260501 0 34.92837-15.667869 34.928369-34.92837v-289.40649c0-19.260501-15.667869-34.92837-34.928369-34.92837h-289.406491c-19.260501 0-34.92837 15.667869-34.928369 34.92837v289.40649c0 19.260501 15.667869 34.92837 34.928369 34.92837h289.406491m0 59.877205h-289.406491c-52.392554 0-94.805575-42.41302-94.805574-94.805575v-289.40649c0-52.392554 42.41302-94.805575 94.805574-94.805575h289.406491c52.392554 0 94.805575 42.41302 94.805574 94.805575v289.40649c0 52.392554-42.41302 94.805575-94.805574 94.805575zM929.198723 834.027093c19.260501 0 34.92837-15.667869 34.92837-34.92837v-289.40649c0-19.260501-15.667869-34.92837-34.92837-34.92837H639.792233c-19.260501 0-34.92837 15.667869-34.92837 34.92837V799.098723c0 19.260501 15.667869 34.92837 34.92837 34.92837h289.40649m0 59.877205H639.792233c-52.392554 0-94.805575-42.41302-94.805575-94.805575v-289.40649c0-52.392554 42.41302-94.805575 94.805575-94.805575h289.40649c52.392554 0 94.805575 42.41302 94.805575 94.805575V799.098723c0 52.392554-42.41302 94.805575-94.805575 94.805575zM386.312065 291.140435c19.260501 0 34.92837-15.667869 34.92837-34.92837v-289.40649c0-19.260501-15.667869-34.92837-34.92837-34.92837H96.905575c-19.260501 0-34.92837 15.667869-34.92837 34.92837V256.212065c0 19.260501 15.667869 34.92837 34.92837 34.92837h289.40649m0 59.877205H96.905575c-52.392554 0-94.805575-42.41302-94.805575-94.805575v-289.40649c0-52.392554 42.41302-94.805575 94.805575-94.805575h289.40649c52.392554 0 94.805575 42.41302 94.805575 94.805575V256.212065c0 52.392554-42.41302 94.805575-94.805575 94.805575zM929.198723 291.140435c19.260501 0 34.92837-15.667869 34.92837-34.92837v-289.40649c0-19.260501-15.667869-34.92837-34.92837-34.92837H639.792233c-19.260501 0-34.92837 15.667869-34.92837 34.92837V256.212065c0 19.260501 15.667869 34.92837 34.92837 34.92837h289.40649m0 59.877205H639.792233c-52.392554 0-94.805575-42.41302-94.805575-94.805575v-289.40649c0-52.392554 42.41302-94.805575 94.805575-94.805575h289.40649c52.392554 0 94.805575 42.41302 94.805575 94.805575V256.212065c0 52.392554-42.41302 94.805575-94.805575 94.805575z"  horiz-adv-x="1026" />

    
    <glyph glyph-name="zhuanxiaji" unicode="&#58965;" d="M434 826v-364H70V690c0 36.3 14.1 70.5 39.8 96.2C135.5 811.9 169.7 826 206 826h228m70 70H206C92.2 896 0 803.8 0 690v-298h504V896zM888.7-128c19.4 0.2 31.2 21.3 19 39.1l-36.5 53.5C929.3 4.2 1125 177 958 527.1c-3.1 4.5-10.6 5.9-12-1.7C963.5 289 843.1 206.8 749.4 142.9L715.9 192c-9.2 13.4-33.1 10.1-40.4-7.9l-72.2-238.9c-8.7-25.6 9.6-52.4 36.5-53.5l248.9-19.7z"  horiz-adv-x="1024" />

    
    <glyph glyph-name="chufa" unicode="&#58966;" d="M516.3 407.2V895.8L338.7 593.4l-0.2-0.3L207 369.2h293.3v-497h2.4l314.3 535z"  horiz-adv-x="1024" />

    
    <glyph glyph-name="zhuanshangji" unicode="&#58967;" d="M434 306v-364H206c-36.3 0-70.5 14.1-96.2 39.8C84.1 7.5 70 41.7 70 78V306h364m70 70H0v-298c0-113.8 92.2-206 206-206h298V376zM888.7 896L639.8 876.3c-26.9-1.1-45.2-27.9-36.5-53.5l72.2-238.9c7.3-18 31.2-21.3 40.4-7.9l33.5 49.1C843.1 561.2 963.5 479 946 242.6c1.4-7.6 8.9-6.2 12-1.7 167 350.1-28.7 522.9-86.8 562.5l36.5 53.5c12.2 17.8 0.4 38.9-19 39.1z"  horiz-adv-x="1024" />

    
    <glyph glyph-name="jihedingyi" unicode="&#58968;" d="M429.832253 301.832097v-379.851621h-379.85162v379.851621h379.85162m49.980476 49.980476H0.000156v-479.812573h479.812573v479.812573zM430.232097 846.019524v-379.851621H50.380476V846.019524h379.851621m49.980476 49.980476H0.4v-479.812573h479.812573V896zM974.01968 846.019524v-379.851621H594.168059V846.019524h379.851621m49.980476 49.980476H544.187583v-479.812573h479.812573V896zM967.422257-101.010543h-76.470129l-83.367435 118.453729c-16.693479 23.690746-31.887544 39.784459-45.682155 48.381101-13.794611 8.496681-30.38813 12.795002-49.580632 12.795002h-46.681765v-179.629832h-64.874659V325.622804h153.040219c48.880906 0 87.06599-9.996095 114.755174-29.988286s41.483795-47.981257 41.483795-84.067161c0-59.176884-37.185474-97.56189-111.556423-115.155018v-1.399453c13.794611-4.998048 25.789926-11.995314 35.786021-21.191722 10.096056-9.196408 23.09098-24.890277 39.084732-47.081609l94.063257-127.750098zM665.640141 277.441624v-150.741116H742.110269c29.588442 0 53.679032 7.29715 72.171808 21.991409s27.689184 33.986724 27.689184 57.877392c0 22.191332-8.39672 39.584537-25.290121 52.079656s-41.383834 18.692698-73.571261 18.692698l-77.469738 0.099961z"  horiz-adv-x="1024" />

    
    <glyph glyph-name="SQLxinjian" unicode="&#58969;" d="M312-81.4H2.7v29.3h266.7c19.5-1.8 28.4 6.2 26.7 24V94.6c1.8 19.5-6.3 28.4-24 26.7H85.3C28.4 121.3 0 151.5 0 211.9v58.7c0 58.7 28.4 88 85.3 88h99.3v-29.3H128c-17.8 1.7-25.8-7.1-24-26.7v-125.3c-1.8-19.6 6.2-28.5 24-26.7h184c58.7 0 88-29.3 88-88v-56c0-58.7-29.3-88-88-88zM672-92.1l-8 10.7H528c-58.7 0-88 30.2-88 90.7V270.6c0 58.7 29.3 88 88 88h256c58.7 0 88-29.3 88-88v-261.3c0-60.5-29.3-90.7-88-90.7h-56l26.7-45.3c-44.5-5.4-72 6.2-82.7 34.6z m8 104l34.7-64h26.7c17.8-1.8 25.7 7.1 24 26.7v328c1.7 19.5-6.3 28.4-24 26.7H570.7c-17.8 1.7-25.8-7.1-24-26.7v-328c-1.8-19.6 6.2-28.5 24-26.7h80l-37.3 64H680zM1024-81.4H920V361.3h104v-442.7zM210.8 262l68.7 192.6 112-117.6-180.7-75zM414.4 359.2L301.5 477.7 608.6 797.4l113-118.5-307.2-319.7zM742.6 703.5L629.6 822l56.5 59.3c18.7 19.6 49 19.6 67.8 0l45.2-47.4c18.7-19.6 18.7-51.5 0-71.1l-56.5-59.3z"  horiz-adv-x="1024" />

    
    <glyph glyph-name="cud1" unicode="&#58970;" d="M0 280.1V490c0 47.1 23.6 70.7 70.7 70.7h212.1v-23.6H109.3c-14.3 1.4-20.7-5.7-19.3-21.4v-263.5c-1.4-14.3 5-20.7 19.3-19.3H285v-25.7H70.7C23.6 207.3 0 231.5 0 280.1zM394.2 560.7v-314.9c0-10 5-15 15-15H527c20 1.4 32.1 10 36.4 25.7V560.7h85.7v-353.5h-87.8v23.6c-7.2-14.3-19.3-22.2-36.4-23.6H370.6c-40 4.3-61.4 24.3-64.3 60V560.7h87.9zM677 560.7h278.5c45.7 0 68.6-24.3 68.6-72.8V278c0-47.1-22.9-70.7-68.6-70.7H811.9c-21.4 1.4-47.1 0-47.1 0H677V560.7z m128.5-332H919c14.3-1.4 20.7 5.7 19.3 21.4V513.6c1.4 15.7-5 22.8-19.3 21.4H801.2c-20-2.9-32.1-13.6-36.4-32.1v-242.1c4.3-17.1 17.8-27.8 40.7-32.1z"  horiz-adv-x="1024" />

    
    <glyph glyph-name="chakan" unicode="&#58971;" d="M1024.007782 861.136187v-631.533074c0-19.224903-15.638911-34.863813-34.863813-34.863813s-34.863813 15.638911-34.863813 34.863813V826.272374H69.735409v-884.544748h596.66926c19.224903 0 34.863813-15.638911 34.863813-34.863813s-15.638911-34.863813-34.863813-34.863813H34.871595c-19.224903 0-34.863813 15.638911-34.863813 34.863813V861.136187C0.007782 880.361089 15.646693 896 34.871595 896h954.272374c19.224903 0 34.863813-15.638911 34.863813-34.863813zM555.836576 555.330739c29.086381 0 57.176654-5.677821 83.772763-16.933852 25.6-10.857588 48.610117-26.297276 68.333073-46.119844 19.822568-19.822568 35.262257-42.832685 46.119845-68.333074 11.256031-26.496498 16.933852-54.686381 16.933852-83.772763 0-29.086381-5.677821-57.176654-16.933852-83.772762-10.857588-25.6-26.297276-48.610117-46.119845-68.333074-19.822568-19.822568-42.832685-35.262257-68.333073-46.119845-26.496498-11.256031-54.686381-16.933852-83.772763-16.933852s-57.176654 5.677821-83.772763 16.933852c-25.6 10.857588-48.610117 26.297276-68.333074 46.119845-19.722957 19.822568-35.262257 42.832685-46.119844 68.333074-11.256031 26.496498-16.933852 54.686381-16.933852 83.772762s5.677821 57.176654 16.933852 83.772763c10.857588 25.6 26.297276 48.610117 46.119844 68.333074 19.822568 19.822568 42.832685 35.262257 68.333074 46.119844 26.596109 11.256031 54.686381 16.933852 83.772763 16.933852m0 49.108172c-145.929961 0-264.267704-118.337743-264.267704-264.267705S409.906615 75.803891 555.836576 75.803891 820.10428 194.141634 820.10428 340.171206 701.766537 604.438911 555.836576 604.438911zM484.216342 508.912062c6.175875 6.175875 12.650584 11.953307 19.324514 17.232685-26.197665-9.562646-50.701946-24.803113-71.719844-45.821012-76.999222-76.999222-76.999222-202.010895 0-279.010116 23.308949-23.308949 51.000778-39.545525 80.286381-48.709728-9.761868 7.072374-19.125292 15.140856-27.891051 23.906615-91.741634 91.841245-91.741634 240.659922 0 332.401556zM992.331518-96.423346c-24.006226-24.006226-63.352529-24.006226-87.358755 0L728.362646 80.286381c-24.006226 24.006226-24.006226 63.352529 0 87.358755s63.352529 24.006226 87.358755 0l176.709727-176.709727c24.006226-24.006226 24.006226-63.352529-0.09961-87.358755z"  horiz-adv-x="1028" />

    
    <glyph glyph-name="zengjiatongji" unicode="&#58972;" d="M651.8 120.5h-20.3v527h178V591c0-19.3 15.7-35 35-35s35 15.7 35 35v91.5c0 19.3-15.7 35-35 35h-248c-19.3 0-35-15.7-35-35V419H340.8V659.9c0 32-26 58-58 58H58c-32 0-58-26-58-58v-551.8c0-32 26-58 58-58h224.8c32 0 58 26 58 58V349h220.7v-263.5c0-19.3 15.7-35 35-35h55.3c19.3 0 35 15.7 35 35s-15.7 35-35 35z m-381-0.4H70V647.9h200.8v-527.8zM990 244.5h-89v89c0 19.3-15.7 35-35 35s-35-15.7-35-35v-89h-89c-19.3 0-35-15.7-35-35s15.7-35 35-35h89v-89c0-19.3 15.7-35 35-35s35 15.7 35 35v89h89c19.3 0 35 15.7 35 35s-15.7 35-35 35z"  horiz-adv-x="1025" />

    
    <glyph glyph-name="zengjiaziji" unicode="&#58973;" d="M992.9 395.9H355c-19.3 0-35-15.7-35-35V236H182V555.2h427.8c32 0 58 26 58 58V838c0 32-25.9 58-58 58H58C26 896 0 870 0 838v-224.8c0-32 26-58 58-58h54V207c0-13.3 7.4-24.8 18.2-30.7 6.3-6.3 15.1-10.3 24.8-10.3h165v-145.9c0-19.3 15.7-35 35-35h226c19.3 0 35 15.7 35 35s-15.7 35-35 35H390V325.9h567.9V285c0-19.3 15.7-35 35-35s35 15.7 35 35v75.9c0 19.3-15.7 35-35 35zM70 826h527.8v-200.8H70V826zM989 66h-89v89c0 19.3-15.7 35-35 35s-35-15.7-35-35v-89h-89c-19.3 0-35-15.7-35-35s15.7-35 35-35h89v-89c0-19.3 15.7-35 35-35s35 15.7 35 35v89h89c19.3 0 35 15.7 35 35s-15.7 35-35 35z"  horiz-adv-x="1027" />

    
    <glyph glyph-name="shijian" unicode="&#58974;" d="M797.7 715.1H641.1c4.8 13.9 7.4 28.9 7.4 44.4C648.5 834.9 587.4 896 512 896S375.5 834.9 375.5 759.5c0-15.5 2.6-30.5 7.4-44.4H226.3c-50.2 0-90.8-40.7-90.8-90.8v-661.4c0-50.2 40.7-90.8 90.8-90.8h571.4c50.2 0 90.8 40.7 90.8 90.8V624.2c0 50.2-40.6 90.9-90.8 90.9z m-352.2 44.4c0 36.7 29.8 66.5 66.5 66.5s66.5-29.8 66.5-66.5c0-17.1-6.5-32.6-17-44.4h-98.9c-10.7 11.8-17.1 27.3-17.1 44.4z m373-796.7c0-11.5-9.4-20.8-20.8-20.8H226.3c-11.5 0-20.8 9.4-20.8 20.8V624.2c0 11.5 9.4 20.8 20.8 20.8h211.2c21.4-14 47-22.1 74.5-22.1s53.1 8.1 74.5 22.1h211.2c11.5 0 20.8-9.4 20.8-20.8v-661.4zM747.3 326.5L477.8 57c-10.5-10.5-27.6-10.5-38.1 0l-87.1 87.1c-13.7 13.7-35.8 13.7-49.5 0-13.7-13.7-13.7-35.8 0-49.5l87.1-87.1c18.9-18.9 43.7-28.3 68.5-28.3s49.6 9.4 68.5 28.3L796.8 277c13.7 13.7 13.7 35.8 0 49.5-13.7 13.7-35.8 13.7-49.5 0zM307.3 461.1h409.4c19.3 0 35 15.7 35 35s-15.7 35-35 35H307.3c-19.3 0-35-15.7-35-35s15.7-35 35-35zM580.8 271.2c19.3 0 35 15.7 35 35s-15.7 35-35 35H313.3c-19.3 0-35-15.7-35-35s15.7-35 35-35h267.5z"  horiz-adv-x="1024" />

    
    <glyph glyph-name="qita" unicode="&#58975;" d="M133.3 250.7C59.7 250.7 0 310.4 0 384c0 73.6 59.7 133.3 133.3 133.3 73.6 0 133.3-59.7 133.3-133.3 0-73.6-59.7-133.3-133.3-133.3zM512 250.7c-73.6 0-133.3 59.7-133.3 133.3 0 73.6 59.7 133.3 133.3 133.3 73.6 0 133.3-59.7 133.3-133.3 0-73.6-59.7-133.3-133.3-133.3zM890.7 250.7c-73.6 0-133.3 59.7-133.3 133.3 0 73.6 59.7 133.3 133.3 133.3 73.6 0 133.3-59.7 133.3-133.3 0-73.6-59.7-133.3-133.3-133.3z"  horiz-adv-x="1024" />

    
    </font>
</defs>
</svg>
